<svg width="669" height="196" viewBox="0 0 669 196" fill="none" xmlns="http://www.w3.org/2000/svg">
<rect width="669" height="196" fill="#4DD2A2"/>
<path d="M218.334 61.7793C218.097 62.6348 217.693 63.3239 217.123 63.8467C216.6 64.3219 215.982 64.7497 215.269 65.1299C214.604 65.4626 213.915 65.819 213.202 66.1992C212.489 66.5319 211.871 66.9834 211.348 67.5537L210.92 67.0547L210.778 67.126C210.112 67.3636 209.613 67.6012 209.281 67.8389C208.948 68.0765 208.592 68.528 208.211 69.1934C207.831 69.8587 207.475 70.2627 207.142 70.4053C206.857 70.5003 206.31 70.5241 205.502 70.4766C204.98 70.4766 204.528 70.5716 204.148 70.7617C203.768 70.9043 203.411 71.1182 203.079 71.4033C202.746 71.641 202.413 71.9261 202.081 72.2588C201.795 72.5439 201.439 72.7816 201.011 72.9717C200.631 72.8291 200.203 72.7578 199.728 72.7578C199.3 72.7103 198.896 72.639 198.516 72.5439C198.278 72.7816 197.993 73.0192 197.661 73.2568C197.375 73.4469 197.114 73.6608 196.876 73.8984C196.686 73.7083 196.472 73.637 196.235 73.6846C196.045 73.7321 195.831 73.8034 195.593 73.8984C195.403 73.9935 195.237 74.041 195.094 74.041C194.999 73.9935 194.833 73.9935 194.595 74.041C194.025 74.1836 193.645 74.4212 193.455 74.7539C193.312 75.0391 193.217 75.3955 193.169 75.8232C193.169 76.2035 193.169 76.5837 193.169 76.9639C193.169 77.3441 193.027 77.6292 192.742 77.8193H192.67V77.8906C192.338 78.8411 191.791 79.7441 191.031 80.5996C190.27 81.4076 189.581 82.263 188.963 83.166C188.346 84.0215 187.965 84.9245 187.823 85.875C187.68 86.778 188.06 87.7998 188.963 88.9404V89.0117H189.035C189.843 89.582 190.365 90.3424 190.603 91.293C190.888 92.196 191.15 93.099 191.387 94.002L191.458 94.0732C192.314 94.7386 193.098 95.4277 193.811 96.1406C194.524 96.8535 195.237 97.6139 195.95 98.4219C196.995 99.6576 198.041 100.727 199.086 101.63C200.132 102.58 201.439 103.317 203.007 103.84C202.912 104.22 202.865 104.6 202.865 104.98C202.912 105.361 202.912 105.741 202.865 106.121C202.294 106.216 201.748 106.192 201.225 106.05C200.75 105.955 200.275 105.812 199.799 105.622C199.324 105.479 198.849 105.313 198.374 105.123C197.898 104.933 197.375 104.814 196.805 104.767C195.807 103.531 194.714 102.462 193.526 101.559C192.385 100.656 191.221 99.6576 190.033 98.5645C189.89 97.6615 189.629 96.901 189.249 96.2832C188.868 95.6654 188.393 95 187.823 94.2871C187.585 94.002 187.347 93.6693 187.11 93.2891C186.92 92.9089 186.682 92.5762 186.397 92.291C186.112 92.0534 185.755 91.6969 185.328 91.2217C184.947 90.7464 184.757 90.3187 184.757 89.9385C184.757 89.5107 184.805 89.1068 184.9 88.7266C184.995 88.2988 185.042 87.8711 185.042 87.4434C185.042 86.8255 184.9 86.3503 184.615 86.0176C184.33 85.6374 183.926 85.3285 183.403 85.0908L183.26 85.0195L183.189 85.0908C182.524 85.5661 182.048 86.0651 181.763 86.5879C181.478 87.1107 181.169 87.7523 180.836 88.5127C180.551 89.1781 180.266 89.7721 179.981 90.2949C179.696 90.8177 179.339 91.2454 178.912 91.5781C178.531 91.9108 178.056 92.1009 177.486 92.1484C176.916 92.196 176.226 92.0771 175.418 91.792H175.276C175.038 92.0296 174.777 92.2673 174.492 92.5049C174.254 92.7425 173.993 92.9801 173.708 93.2178C173.327 92.79 172.852 92.6475 172.282 92.79C171.711 92.9326 171.189 93.099 170.713 93.2891V93.3604C170.428 93.9307 169.977 94.2396 169.359 94.2871C168.741 94.3346 168.028 94.3346 167.22 94.2871C166.46 94.1921 165.676 94.1208 164.868 94.0732C164.06 94.0257 163.323 94.1683 162.658 94.501C162.278 94.1683 161.897 94.002 161.517 94.002C161.184 93.9544 160.828 94.002 160.448 94.1445C160.115 94.2396 159.759 94.3822 159.378 94.5723C158.998 94.7624 158.618 94.8812 158.238 94.9287C157.715 94.6436 156.978 94.3346 156.028 94.002C155.125 93.6693 154.174 93.3366 153.176 93.0039C152.178 92.6237 151.251 92.2435 150.396 91.8633C149.541 91.4831 148.946 91.1029 148.614 90.7227H148.542C147.497 90.7227 146.618 90.5801 145.905 90.2949C145.239 89.9622 144.479 89.487 143.624 88.8691C143.006 88.4889 142.435 88.1562 141.913 87.8711C141.39 87.5384 140.748 87.2533 139.988 87.0156L139.845 86.9443C139.608 87.4196 139.37 87.5622 139.132 87.3721C138.895 87.182 138.61 86.9443 138.277 86.6592C138.514 86.4215 138.633 86.1602 138.633 85.875C138.681 85.5423 138.705 85.2334 138.705 84.9482C138.134 84.4255 137.611 84.0928 137.136 83.9502C136.708 83.8076 136.281 83.6888 135.853 83.5938C135.473 83.4512 135.116 83.2848 134.784 83.0947C134.451 82.9046 134.118 82.5007 133.786 81.8828H133.714C133.001 81.6927 132.55 81.2887 132.36 80.6709C132.122 80.0055 131.932 79.3402 131.79 78.6748C131.647 78.0094 131.409 77.3916 131.077 76.8213C130.744 76.2035 130.102 75.8232 129.152 75.6807C128.772 74.9202 128.344 74.1598 127.869 73.3994C127.346 72.5915 126.942 71.8073 126.657 71.0469C126.372 70.2389 126.253 69.431 126.3 68.623C126.348 67.8151 126.704 67.0072 127.37 66.1992C128.083 65.819 128.795 65.8428 129.508 66.2705C130.221 66.6507 130.91 67.221 131.576 67.9814C132.241 68.6943 132.859 69.4548 133.429 70.2627C134 71.0706 134.546 71.641 135.069 71.9736H135.14C136.376 72.3538 137.611 72.8529 138.847 73.4707C140.13 74.0885 141.295 74.7539 142.34 75.4668C142.673 75.7044 142.982 75.9183 143.267 76.1084C143.552 76.2985 143.837 76.5124 144.123 76.75C144.17 76.75 144.218 76.7738 144.265 76.8213L144.408 76.75C145.121 76.4173 145.762 76.2985 146.333 76.3936C146.903 76.4411 147.426 76.5837 147.901 76.8213C148.376 77.0114 148.828 77.2253 149.255 77.4629C149.731 77.653 150.23 77.7005 150.752 77.6055C151.275 78.0807 151.822 78.3184 152.392 78.3184C152.962 78.2708 153.509 78.1758 154.032 78.0332C154.602 77.8906 155.149 77.8193 155.671 77.8193C156.194 77.7718 156.693 77.9619 157.168 78.3896V78.4609C158.404 78.6035 159.426 78.651 160.234 78.6035C161.042 78.556 161.897 78.057 162.8 77.1064L163.299 77.6768C163.822 77.3441 164.392 77.1302 165.01 77.0352C165.628 76.9401 166.246 76.8688 166.864 76.8213C167.529 76.7738 168.171 76.6549 168.789 76.4648C169.406 76.2747 169.977 75.8945 170.5 75.3242C170.737 75.5618 171.022 75.7044 171.355 75.752C171.688 75.7995 171.997 75.8232 172.282 75.8232C172.377 75.7282 172.448 75.6807 172.496 75.6807C172.591 75.6331 172.662 75.5618 172.709 75.4668C172.9 75.752 173.113 75.8945 173.351 75.8945C173.589 75.8945 173.826 75.847 174.064 75.752C174.349 75.6094 174.611 75.4668 174.848 75.3242C175.086 75.1341 175.276 74.9915 175.418 74.8965C175.704 75.2292 175.965 75.4193 176.203 75.4668C176.488 75.4668 176.749 75.4193 176.987 75.3242C177.272 75.1816 177.557 75.0628 177.842 74.9678C178.127 74.8252 178.413 74.8014 178.698 74.8965L178.769 74.9678L181.478 74.54C181.193 73.7796 181.05 72.9004 181.05 71.9023C181.05 70.9043 181.383 70.0964 182.048 69.4785C182.048 69.431 181.977 69.2884 181.834 69.0508C181.739 68.7656 181.621 68.5042 181.478 68.2666C181.383 67.9814 181.288 67.7438 181.193 67.5537C181.098 67.3161 181.05 67.1735 181.05 67.126C181.145 66.7458 181.217 66.3418 181.264 65.9141C181.312 65.4863 181.383 65.0824 181.478 64.7021C181.621 63.8467 181.716 62.9912 181.763 62.1357C181.858 61.2327 181.93 60.3298 181.977 59.4268C182.072 58.0485 182.096 56.7178 182.048 55.4346C182.048 54.1038 182.096 52.7493 182.191 51.3711C182.238 50.6107 182.452 49.8027 182.833 48.9473C183.26 48.0918 183.688 47.2126 184.116 46.3096C184.591 45.359 185.019 44.3848 185.399 43.3867C185.779 42.3411 185.969 41.2718 185.969 40.1787C186.254 39.8936 186.563 39.6322 186.896 39.3945C187.229 39.1569 187.514 38.9193 187.751 38.6816C188.037 38.3965 188.227 38.0876 188.322 37.7549C188.464 37.3747 188.464 36.9469 188.322 36.4717C189.557 35.7113 190.579 34.9271 191.387 34.1191C192.243 33.2637 192.908 32.1468 193.383 30.7686C194.239 30.8636 194.952 30.8636 195.522 30.7686C196.092 30.626 196.734 30.5309 197.447 30.4834C198.16 31.8141 198.944 33.1924 199.799 34.6182C200.655 36.0439 201.178 37.4935 201.368 38.9668C200.987 39.1569 200.774 39.4658 200.726 39.8936C200.726 40.3213 200.726 40.7253 200.726 41.1055L200.655 41.248C201.415 42.0085 202.081 42.7451 202.651 43.458C201.51 44.2184 200.797 45.1452 200.512 46.2383C200.227 47.3314 200.536 48.4245 201.439 49.5176C201.344 50.4206 201.154 51.3236 200.869 52.2266C200.583 53.082 200.322 53.9613 200.084 54.8643L197.447 65.2012C197.684 65.3913 197.732 65.7477 197.589 66.2705C197.447 66.7458 197.233 67.2686 196.948 67.8389C196.663 68.4092 196.354 68.9557 196.021 69.4785C195.688 69.9538 195.451 70.2865 195.308 70.4766L195.593 70.833C196.544 70.3102 197.518 69.7874 198.516 69.2646C199.562 68.6943 200.583 68.1715 201.582 67.6963C202.817 67.126 204.053 66.5319 205.289 65.9141C206.524 65.2962 207.689 64.5833 208.782 63.7754C209.352 64.2031 209.78 64.3219 210.065 64.1318C210.35 63.8942 210.611 63.609 210.849 63.2764C211.134 62.9437 211.443 62.6823 211.776 62.4922C212.156 62.2546 212.679 62.3734 213.344 62.8486C213.392 62.8011 213.416 62.7298 213.416 62.6348C213.938 61.6367 214.675 61.1615 215.625 61.209C216.624 61.2565 217.527 61.4466 218.334 61.7793ZM196.306 41.4619C195.973 41.1768 195.783 40.7728 195.736 40.25C195.736 39.7272 195.688 39.2282 195.593 38.7529C195.546 38.2301 195.379 37.7786 195.094 37.3984C194.809 37.0182 194.215 36.8281 193.312 36.8281L193.241 36.9707C192.861 37.6836 192.385 38.6104 191.815 39.751C191.292 40.8916 190.769 42.0798 190.247 43.3154C189.724 44.5036 189.272 45.668 188.892 46.8086C188.512 47.9017 188.322 48.8047 188.322 49.5176C188.654 50.3255 188.654 51.1572 188.322 52.0127C187.989 52.8206 187.609 53.6761 187.181 54.5791C186.753 55.4346 186.421 56.3376 186.183 57.2881C185.993 58.2386 186.183 59.2367 186.753 60.2822C185.945 61.3278 185.518 62.3258 185.47 63.2764C185.47 64.2269 185.613 65.2012 185.898 66.1992C186.183 67.1497 186.492 68.124 186.825 69.1221C187.205 70.0726 187.395 71.0706 187.395 72.1162C188.441 71.8786 189.201 71.5221 189.676 71.0469C190.199 70.5716 190.556 70.0488 190.746 69.4785C190.983 68.8607 191.126 68.2191 191.173 67.5537C191.221 66.8883 191.316 66.2705 191.458 65.7002C191.601 65.0824 191.839 64.5358 192.171 64.0605C192.504 63.5378 193.051 63.1576 193.811 62.9199C193.526 62.3021 193.502 61.4229 193.74 60.2822C193.977 59.0941 194.263 57.8346 194.595 56.5039C194.928 55.1732 195.213 53.8662 195.451 52.583C195.688 51.2523 195.688 50.1354 195.451 49.2324C195.831 48.3294 196.045 47.5215 196.092 46.8086C196.14 46.0957 196.164 45.264 196.164 44.3135C196.164 43.9333 196.187 43.4342 196.235 42.8164C196.33 42.1986 196.354 41.7471 196.306 41.4619ZM181.264 79.5303C180.836 79.7679 180.361 80.0055 179.838 80.2432C179.316 80.4808 178.769 80.6947 178.199 80.8848C177.628 81.0273 177.058 81.0986 176.488 81.0986C175.917 81.0986 175.418 80.9561 174.991 80.6709C174.991 81.9541 174.753 82.667 174.278 82.8096C173.85 82.9521 173.28 82.9284 172.567 82.7383C171.902 82.5482 171.189 82.4056 170.428 82.3105C169.668 82.168 169.002 82.5007 168.432 83.3086C167.719 83.2611 166.959 83.3561 166.151 83.5938C165.39 83.8314 164.606 84.0215 163.798 84.1641C163.038 84.2591 162.301 84.2354 161.588 84.0928C160.923 83.9502 160.329 83.4987 159.806 82.7383L159.592 83.0947C159.117 83.8551 158.547 84.3066 157.881 84.4492C157.264 84.5443 156.598 84.568 155.885 84.5205C155.172 84.4255 154.459 84.3542 153.747 84.3066C153.081 84.2591 152.487 84.4492 151.964 84.877C151.299 84.972 150.705 84.877 150.182 84.5918C149.659 84.2591 149.089 83.9264 148.471 83.5938L148.115 83.8789H148.043C148.091 83.7839 148.162 83.6888 148.257 83.5938C148.115 83.5462 147.877 83.4749 147.544 83.3799C147.259 83.2848 147.022 83.1898 146.832 83.0947C146.451 82.9521 146.071 82.8096 145.691 82.667C145.358 82.5244 145.002 82.4531 144.622 82.4531C144.099 82.4531 143.528 82.263 142.911 81.8828C142.293 81.5026 141.77 81.1462 141.342 80.8135C141.057 80.5758 140.724 80.362 140.344 80.1719C140.012 79.9818 139.655 79.8392 139.275 79.7441L138.99 80.1006C139.275 80.6709 139.584 81.1224 139.917 81.4551C140.297 81.7878 140.677 82.0967 141.057 82.3818C141.437 82.667 141.841 82.9521 142.269 83.2373C142.697 83.4749 143.101 83.7839 143.481 84.1641C143.719 84.972 144.241 85.5661 145.049 85.9463C145.857 86.279 146.76 86.5641 147.758 86.8018C148.804 86.9919 149.849 87.2057 150.895 87.4434C151.941 87.6335 152.82 87.9899 153.533 88.5127C153.96 88.7979 154.459 88.988 155.03 89.083C155.6 89.1781 156.17 89.2731 156.741 89.3682C157.311 89.4157 157.834 89.5107 158.309 89.6533C158.784 89.7959 159.141 90.1048 159.378 90.5801L160.733 90.6514C160.78 90.6038 160.804 90.5563 160.804 90.5088C161.327 89.7959 161.921 89.487 162.586 89.582C163.252 89.6296 163.917 89.7721 164.583 90.0098C165.295 90.1999 165.985 90.2949 166.65 90.2949C167.363 90.2474 167.981 89.7484 168.503 88.7979C169.074 88.988 169.715 88.9642 170.428 88.7266C171.141 88.4414 171.83 88.1325 172.496 87.7998C173.208 87.4671 173.826 87.182 174.349 86.9443C174.919 86.7067 175.347 86.6829 175.632 86.873C175.727 86.6829 176.013 86.3978 176.488 86.0176C177.011 85.5898 177.343 85.3047 177.486 85.1621C178.199 84.5918 178.722 84.1403 179.054 83.8076C179.387 83.4274 179.648 83.071 179.838 82.7383C180.076 82.3581 180.266 81.9303 180.409 81.4551C180.599 80.9798 180.884 80.3382 181.264 79.5303ZM250.129 92.4336C250.177 93.0039 250.082 93.4316 249.844 93.7168C249.607 94.002 249.274 94.2158 248.846 94.3584C248.466 94.501 248.038 94.6198 247.563 94.7148C247.088 94.7624 246.684 94.8812 246.351 95.0713C244.973 94.9287 243.642 94.7386 242.359 94.501C241.076 94.2158 239.888 93.8118 238.794 93.2891C237.701 92.7188 236.703 91.9821 235.8 91.0791C234.945 90.1761 234.208 89.0355 233.59 87.6572C234.208 86.6592 234.422 85.5661 234.232 84.3779C234.042 83.1423 233.852 81.9541 233.662 80.8135C233.519 79.6729 233.543 78.6273 233.733 77.6768C233.971 76.7262 234.802 75.9658 236.228 75.3955C236.133 74.8727 236.133 74.3024 236.228 73.6846C236.371 73.0667 236.204 72.5439 235.729 72.1162C234.066 72.6865 232.616 73.4945 231.38 74.54C230.145 75.5856 228.957 76.7262 227.816 77.9619C226.723 79.1976 225.606 80.457 224.465 81.7402C223.372 82.9759 222.16 84.069 220.83 85.0195C220.212 85.0671 219.546 85.0433 218.833 84.9482C218.168 84.8057 217.598 84.9958 217.123 85.5186C217.17 85.8512 217.289 86.1364 217.479 86.374C217.669 86.6117 217.812 86.8493 217.907 87.0869C218.049 87.3245 218.121 87.5859 218.121 87.8711C218.121 88.1087 217.954 88.3939 217.622 88.7266C217.146 89.2018 216.624 89.6058 216.053 89.9385C215.53 90.2236 215.008 90.5563 214.485 90.9365C214.01 91.2692 213.606 91.6732 213.273 92.1484C212.94 92.6237 212.774 93.2653 212.774 94.0732C212.489 93.9307 212.227 93.9069 211.99 94.002C211.752 94.0495 211.538 94.1683 211.348 94.3584C211.111 94.5485 210.897 94.7624 210.707 95C210.516 95.2376 210.326 95.4277 210.136 95.5703C210.041 95.8079 210.065 95.998 210.208 96.1406C210.35 96.3307 210.516 96.5208 210.707 96.7109C210.516 97.2337 210.279 97.5426 209.994 97.6377C209.661 97.7803 209.328 97.804 208.996 97.709C208.615 97.6139 208.259 97.4476 207.926 97.21C207.546 97.0199 207.213 96.8535 206.928 96.7109C206.786 96.0931 206.691 95.3802 206.643 94.5723C206.596 93.7643 206.619 92.9801 206.714 92.2197C206.809 91.4118 207 90.6514 207.285 89.9385C207.57 89.2256 207.998 88.6315 208.568 88.1562C208.758 88.0137 208.877 87.9424 208.924 87.9424C208.972 87.8949 208.996 87.8711 208.996 87.8711C208.996 87.8711 209.019 87.8711 209.067 87.8711C209.114 87.8236 209.209 87.7285 209.352 87.5859C209.732 87.1582 209.994 86.7067 210.136 86.2314C210.279 85.7087 210.398 85.1859 210.493 84.6631C210.588 84.1403 210.73 83.6413 210.92 83.166C211.063 82.6432 211.348 82.1917 211.776 81.8115C211.586 81.0511 211.586 80.3857 211.776 79.8154C212.014 79.1976 212.299 78.6273 212.631 78.1045C213.012 77.5342 213.368 76.9876 213.701 76.4648C214.081 75.8945 214.319 75.2767 214.414 74.6113C214.461 74.3737 214.461 74.1598 214.414 73.9697C214.414 73.7321 214.414 73.4945 214.414 73.2568C214.319 72.4964 214.39 71.9261 214.627 71.5459C214.913 71.1182 215.245 70.7855 215.625 70.5479C216.053 70.2627 216.481 69.9775 216.909 69.6924C217.384 69.4072 217.788 68.9795 218.121 68.4092C219.499 69.0745 220.307 69.9775 220.544 71.1182C220.83 72.2113 220.925 73.4469 220.83 74.8252C220.022 75.348 219.404 76.0846 218.976 77.0352C218.548 77.9382 218.263 78.8174 218.121 79.6729C218.216 79.958 218.334 80.1243 218.477 80.1719C218.667 80.1719 218.857 80.1481 219.047 80.1006C219.285 80.0055 219.499 79.9105 219.689 79.8154C219.879 79.7204 220.069 79.6729 220.259 79.6729C221.97 78.4847 223.657 77.154 225.321 75.6807C227.032 74.2074 228.362 72.5202 229.313 70.6191C230.691 69.9538 231.998 69.1934 233.234 68.3379C234.47 67.4349 235.824 66.7695 237.297 66.3418L238.937 64.7021C239.175 65.0824 239.46 65.1774 239.792 64.9873C240.125 64.7497 240.458 64.4883 240.791 64.2031C241.123 63.918 241.432 63.7516 241.717 63.7041C242.05 63.6566 242.359 63.9893 242.644 64.7021C243.119 65.9378 243.238 67.1497 243 68.3379C242.763 69.4785 242.383 70.6191 241.86 71.7598C241.385 72.8529 240.886 73.9697 240.363 75.1104C239.84 76.251 239.531 77.4154 239.436 78.6035C239.436 78.8887 239.436 79.1976 239.436 79.5303C239.436 79.8154 239.412 80.1243 239.365 80.457C239.27 81.4551 239.127 82.5482 238.937 83.7363C238.794 84.877 238.866 85.9225 239.151 86.873C239.389 87.7285 239.888 88.4889 240.648 89.1543C241.408 89.8197 242.074 90.485 242.644 91.1504C242.977 91.1029 243.309 91.1266 243.642 91.2217C243.975 91.3167 244.284 91.4118 244.569 91.5068C244.902 91.6019 245.21 91.6494 245.496 91.6494C245.781 91.6019 246.066 91.4355 246.351 91.1504C246.684 91.0078 246.993 91.0316 247.278 91.2217C247.611 91.3643 247.919 91.5544 248.205 91.792C248.49 92.0296 248.775 92.2435 249.06 92.4336C249.393 92.5762 249.749 92.5762 250.129 92.4336ZM305.165 43.458C304.499 44.1709 303.763 44.5511 302.955 44.5986C302.147 44.5986 301.339 44.5273 300.531 44.3848C299.77 44.2422 299.01 44.1947 298.25 44.2422C297.537 44.2422 296.919 44.6224 296.396 45.3828C295.636 45.1927 294.851 45.1689 294.043 45.3115C293.236 45.4066 292.404 45.5729 291.548 45.8105C290.693 46.0007 289.837 46.1908 288.982 46.3809C288.126 46.571 287.271 46.6423 286.416 46.5947L285.204 45.3828C284.871 45.9056 284.396 46.2383 283.778 46.3809C283.208 46.4759 282.637 46.3333 282.067 45.9531C281.069 46.6185 280.071 46.9274 279.073 46.8799C278.075 46.8324 277.1 46.8086 276.15 46.8086C275.199 46.7611 274.296 46.9512 273.441 47.3789C272.633 47.7591 271.944 48.7334 271.374 50.3018C270.946 51.3949 270.542 52.5117 270.162 53.6523C269.781 54.7454 269.401 55.8385 269.021 56.9316C267.975 59.7832 266.906 62.611 265.813 65.415C264.767 68.1715 263.579 70.9043 262.249 73.6133C262.153 75.752 262.201 77.9144 262.391 80.1006C262.581 82.2868 262.795 84.4492 263.033 86.5879C262.843 87.1582 262.771 87.7523 262.819 88.3701C262.914 88.988 263.08 89.6058 263.318 90.2236C263.556 90.8415 263.841 91.4355 264.173 92.0059C264.506 92.5286 264.862 93.0039 265.243 93.4316L266.526 92.2197L268.308 94.7148C268.783 94.097 269.33 93.4554 269.948 92.79C270.613 92.0771 271.302 91.4355 272.015 90.8652C272.728 90.2474 273.465 89.7484 274.225 89.3682C275.033 88.9404 275.841 88.6553 276.649 88.5127C276.982 88.18 277.291 87.8236 277.576 87.4434C277.861 87.0632 278.17 86.7542 278.502 86.5166C278.835 86.2314 279.192 86.0413 279.572 85.9463C280 85.8037 280.499 85.8275 281.069 86.0176C282.59 85.1621 283.944 84.0928 285.132 82.8096C286.32 81.4788 287.509 80.1719 288.697 78.8887C289.885 77.5579 291.121 76.346 292.404 75.2529C293.735 74.1598 295.279 73.3994 297.038 72.9717C295.897 75.7282 294.447 78.4134 292.689 81.0273C290.931 83.5938 288.958 85.8988 286.772 87.9424C286.202 88.6077 285.489 89.2018 284.633 89.7246C284.253 89.9622 283.849 90.2236 283.421 90.5088C282.994 90.7464 282.59 90.984 282.209 91.2217C280.926 92.0771 279.691 93.0039 278.502 94.002C277.314 94.9525 276.174 96.0218 275.081 97.21C274.938 96.9248 274.748 96.7347 274.51 96.6396C274.273 96.5446 273.987 96.4971 273.655 96.4971C273.37 96.4971 273.061 96.5208 272.728 96.5684C272.443 96.6159 272.181 96.6159 271.944 96.5684C271.041 97.2337 269.853 97.7565 268.379 98.1367C266.954 98.5645 265.67 98.6595 264.53 98.4219C264.197 98.3268 263.746 98.1367 263.175 97.8516C262.605 97.6139 262.177 97.4001 261.892 97.21C260.039 95.9743 258.637 94.4535 257.686 92.6475C256.783 90.7939 256.284 88.7741 256.189 86.5879L255.619 86.0176C256.236 85.4473 256.617 84.877 256.759 84.3066C256.949 83.7363 256.997 83.166 256.902 82.5957C256.854 81.9779 256.736 81.36 256.545 80.7422C256.403 80.0768 256.308 79.4115 256.26 78.7461C256.213 78.3184 256.213 77.9619 256.26 77.6768C256.355 77.3916 256.45 77.0589 256.545 76.6787C256.926 75.1579 257.282 73.6846 257.615 72.2588C257.947 70.7855 258.304 69.3122 258.684 67.8389C259.635 64.2269 260.728 60.6624 261.963 57.1455C263.247 53.5811 264.577 50.0641 265.956 46.5947C265.195 46.3096 264.435 46.1432 263.674 46.0957C262.914 46.0007 262.13 45.9531 261.322 45.9531C260.561 45.9531 259.777 45.9294 258.969 45.8818C258.209 45.8343 257.448 45.668 256.688 45.3828C256.355 45.2402 256.189 45.1689 256.189 45.1689C256.189 45.1214 255.999 45.0977 255.619 45.0977C255.381 45.0977 255.048 45.1452 254.621 45.2402C254.193 45.2878 253.765 45.3115 253.337 45.3115C252.91 45.3115 252.529 45.264 252.197 45.1689C251.817 45.0739 251.603 44.86 251.555 44.5273V43.8145C251.603 43.054 251.769 42.555 252.054 42.3174C252.339 42.0322 252.696 41.8659 253.124 41.8184C253.551 41.7233 254.027 41.6758 254.549 41.6758C255.072 41.6283 255.571 41.4619 256.046 41.1768C257.377 41.4619 258.637 41.6758 259.825 41.8184C261.013 41.9134 262.153 41.8896 263.247 41.7471C264.387 41.6045 265.48 41.2956 266.526 40.8203C267.619 40.3451 268.688 39.6322 269.734 38.6816C270.494 37.2083 271.065 35.64 271.445 33.9766C271.825 32.2656 272.253 30.6022 272.728 28.9863C273.251 27.3229 273.916 25.8021 274.724 24.4238C275.532 22.998 276.768 21.8099 278.431 20.8594C279.192 20.7643 279.857 20.8594 280.427 21.1445C280.998 21.4297 281.568 21.7386 282.138 22.0713C281.901 22.7367 281.71 23.4258 281.568 24.1387C281.425 24.8516 281.259 25.5645 281.069 26.2773C280.926 26.9902 280.736 27.6794 280.499 28.3447C280.261 29.0101 279.904 29.6279 279.429 30.1982C280.047 30.4359 280.403 30.721 280.499 31.0537C280.594 31.3864 280.546 31.7428 280.356 32.123C280.166 32.5033 279.928 32.9072 279.643 33.335C279.358 33.7627 279.192 34.1429 279.144 34.4756C278.621 34.5231 278.17 34.8558 277.79 35.4736C277.457 36.0915 277.1 36.5667 276.72 36.8994C276.34 37.7074 276.411 38.3965 276.934 38.9668C277.457 39.5371 277.932 40.0837 278.36 40.6064C278.788 40.749 279.215 40.7728 279.643 40.6777C280.071 40.5352 280.451 40.3926 280.784 40.25C281.164 40.1074 281.52 40.0361 281.853 40.0361C282.186 40.0361 282.495 40.2262 282.78 40.6064C283.255 40.0837 283.73 39.8698 284.206 39.9648C284.681 40.0124 285.156 40.1312 285.631 40.3213C286.107 40.4639 286.582 40.5352 287.057 40.5352C287.532 40.4876 287.984 40.1074 288.412 39.3945C288.982 39.1094 289.505 39.0381 289.98 39.1807C290.503 39.3232 290.978 39.5133 291.406 39.751C291.833 39.9411 292.237 40.1074 292.618 40.25C293.045 40.3451 293.473 40.25 293.901 39.9648C294.614 40.0599 295.398 40.0837 296.253 40.0361C297.156 39.9886 298.036 39.8936 298.891 39.751C299.794 39.6084 300.673 39.4421 301.529 39.252C302.432 39.0143 303.24 38.8242 303.953 38.6816C304.666 39.1094 305.093 39.4896 305.236 39.8223C305.378 40.1549 305.402 40.4876 305.307 40.8203C305.26 41.153 305.165 41.5332 305.022 41.9609C304.927 42.3411 304.974 42.8402 305.165 43.458ZM341.379 73.1855C340.952 73.6133 340.619 73.946 340.381 74.1836C340.191 74.4212 340.001 74.6589 339.811 74.8965C339.668 75.0866 339.478 75.3005 339.241 75.5381C339.051 75.7757 338.742 76.1322 338.314 76.6074C337.934 76.9876 337.577 77.3916 337.245 77.8193C336.912 78.2471 336.532 78.6273 336.104 78.96C335.534 78.8174 335.082 78.8887 334.75 79.1738C334.464 79.459 334.179 79.7917 333.894 80.1719C333.656 80.5046 333.419 80.8372 333.181 81.1699C332.991 81.4551 332.73 81.5739 332.397 81.5264C331.256 82.1442 330.116 82.6908 328.975 83.166C327.834 83.5938 326.741 84.2354 325.696 85.0908L325.125 84.5205L317.711 88.085C317.474 88.18 317.236 88.3226 316.999 88.5127C316.761 88.7028 316.523 88.8691 316.286 89.0117C315.24 89.582 314.147 90.1048 313.006 90.5801C311.913 91.0078 310.82 91.4118 309.727 91.792L308.8 92.0771C309.181 93.0277 309.181 93.693 308.8 94.0732C308.42 94.4535 307.874 94.7386 307.161 94.9287C306.448 95.0713 305.664 95.1663 304.808 95.2139C303.953 95.2614 303.287 95.4277 302.812 95.7129C302.242 95.6178 301.648 95.5703 301.03 95.5703C300.459 95.6178 299.865 95.6891 299.248 95.7842C298.582 95.8792 297.964 95.9268 297.394 95.9268C296.824 95.9268 296.206 95.8555 295.541 95.7129H295.398C294.59 96.0931 293.877 96.1644 293.259 95.9268C292.689 95.7367 292.166 95.404 291.691 94.9287C291.216 94.4059 290.764 93.8118 290.336 93.1465C289.956 92.4336 289.552 91.792 289.125 91.2217C288.839 90.8415 288.483 90.2949 288.055 89.582C287.627 88.8691 287.271 88.1087 286.986 87.3008C286.653 86.4928 286.463 85.6849 286.416 84.877C286.32 84.0215 286.487 83.2848 286.915 82.667C287.342 82.0492 287.699 81.3838 287.984 80.6709C288.222 79.958 288.34 79.1263 288.34 78.1758C288.34 77.8431 288.34 77.5342 288.34 77.249C288.293 76.9639 288.269 76.6549 288.269 76.3223C288.507 76.3223 288.768 76.346 289.053 76.3936C289.338 76.3936 289.6 76.3936 289.837 76.3936C290.123 76.346 290.336 76.251 290.479 76.1084C290.669 75.9183 290.764 75.6094 290.764 75.1816C290.764 74.944 290.669 74.7539 290.479 74.6113C290.336 74.4688 290.241 74.3262 290.194 74.1836C290.479 73.7559 290.74 73.4232 290.978 73.1855C291.263 72.9004 291.501 72.639 291.691 72.4014C291.881 72.1162 292.024 71.8073 292.119 71.4746C292.214 71.0944 292.19 70.5954 292.047 69.9775C292.618 68.9795 293.283 68.1003 294.043 67.3398C294.851 66.5319 295.683 65.7952 296.539 65.1299C297.394 64.417 298.273 63.7279 299.176 63.0625C300.079 62.3971 300.935 61.6842 301.743 60.9238C302.646 61.304 303.359 61.304 303.881 60.9238C304.452 60.5436 304.951 60.1396 305.378 59.7119C305.806 59.2367 306.234 58.8564 306.662 58.5713C307.089 58.2861 307.66 58.4049 308.373 58.9277L308.515 59.0703C309.798 57.7871 311.082 57.2168 312.365 57.3594C313.695 57.502 314.812 57.9297 315.715 58.6426C316.666 59.3555 317.284 60.1872 317.569 61.1377C317.854 62.0407 317.593 62.6585 316.785 62.9912C317.307 63.514 317.569 64.1318 317.569 64.8447C317.569 65.5576 317.379 66.1755 316.999 66.6982C316.571 67.2686 316.191 67.8626 315.858 68.4805C315.573 69.0508 315.264 69.6686 314.931 70.334C314.456 71.4271 313.933 72.4727 313.363 73.4707C312.792 74.4212 311.985 75.2292 310.939 75.8945C310.083 75.6569 309.489 75.752 309.157 76.1797C308.872 76.6074 308.658 77.0827 308.515 77.6055C308.373 78.0807 308.206 78.4609 308.016 78.7461C307.826 79.0312 307.422 78.9362 306.804 78.4609L306.662 78.3184L306.519 78.4609C306.139 78.8411 305.83 79.2689 305.592 79.7441C305.402 80.2194 305.117 80.5758 304.737 80.8135C304.309 80.6709 303.858 80.5521 303.382 80.457C302.907 80.362 302.456 80.2669 302.028 80.1719C302.028 81.1699 301.838 81.9541 301.458 82.5244C301.077 83.0947 300.578 83.57 299.96 83.9502C299.39 84.2829 298.725 84.568 297.964 84.8057C297.204 84.9958 296.444 85.2572 295.683 85.5898C294.97 85.875 294.281 86.2552 293.616 86.7305C292.998 87.1582 292.499 87.776 292.119 88.584C292.594 89.1068 293.188 89.4157 293.901 89.5107C294.614 89.5583 295.35 89.5583 296.111 89.5107C296.871 89.4157 297.608 89.3682 298.321 89.3682C299.081 89.3682 299.747 89.5583 300.317 89.9385L300.388 90.0098L300.459 89.9385C301.6 89.7959 302.693 89.5345 303.739 89.1543C304.832 88.7266 305.877 88.2988 306.875 87.8711C307.921 87.3958 308.967 86.9681 310.012 86.5879C311.105 86.1602 312.222 85.8512 313.363 85.6611C313.6 86.0413 313.909 86.2552 314.29 86.3027C314.717 86.3503 315.121 86.3265 315.501 86.2314L315.573 86.0889C315.668 85.7562 315.763 85.471 315.858 85.2334C315.953 84.9482 316.096 84.6393 316.286 84.3066C316.618 83.7839 317.022 83.3799 317.498 83.0947C317.973 82.8096 318.472 82.5957 318.995 82.4531C319.565 82.3105 320.159 82.2155 320.777 82.168C321.395 82.1204 322.013 82.0492 322.63 81.9541H322.773L322.844 81.7402C323.034 81.1699 323.272 80.7897 323.557 80.5996C323.89 80.362 324.222 80.1956 324.555 80.1006C324.935 80.0055 325.316 79.9342 325.696 79.8867C326.124 79.8392 326.528 79.6966 326.908 79.459C327.763 79.7441 328.476 79.6491 329.046 79.1738C329.617 78.6986 330.163 78.1995 330.686 77.6768L331.256 78.3896L331.47 78.1045C332.183 77.4391 332.706 76.9401 333.039 76.6074C333.419 76.2747 333.775 75.9896 334.108 75.752C334.441 75.4668 334.821 75.2054 335.249 74.9678C335.724 74.6826 336.365 74.2786 337.173 73.7559C337.839 73.3281 338.48 72.9004 339.098 72.4727C339.764 72.0449 340.405 71.5697 341.023 71.0469C341.261 71.1419 341.379 71.332 341.379 71.6172C341.379 71.8548 341.379 72.0924 341.379 72.3301C341.332 72.4251 341.284 72.5677 341.237 72.7578C341.237 72.9479 341.284 73.0905 341.379 73.1855ZM311.866 64.2744C311.818 64.2269 311.771 64.2031 311.723 64.2031C311.723 64.2031 311.699 64.1794 311.652 64.1318C310.654 63.609 309.822 63.3714 309.157 63.4189C308.491 63.4189 307.874 63.609 307.303 63.9893C306.78 64.3219 306.281 64.7734 305.806 65.3438C305.378 65.8665 304.903 66.3656 304.38 66.8408C303.905 67.2686 303.335 67.6012 302.669 67.8389C302.004 68.0765 301.196 68.0527 300.246 67.7676C300.103 68.528 299.96 69.2884 299.818 70.0488C299.723 70.7617 299.652 71.4984 299.604 72.2588C298.796 72.5439 298.154 72.9479 297.679 73.4707C297.251 73.9935 296.871 74.5638 296.539 75.1816C296.253 75.7995 295.968 76.4648 295.683 77.1777C295.445 77.8431 295.113 78.4847 294.685 79.1025L294.97 79.459C295.16 79.3639 295.374 79.4352 295.612 79.6729C295.849 79.9105 296.016 80.0768 296.111 80.1719C296.634 79.4115 297.323 78.7699 298.178 78.2471C299.081 77.7243 299.984 77.249 300.887 76.8213C301.838 76.346 302.741 75.847 303.596 75.3242C304.452 74.8014 305.093 74.1123 305.521 73.2568C307.042 72.8291 308.182 71.9736 308.943 70.6904C309.703 69.4072 310.345 68.0765 310.868 66.6982C310.963 66.4131 311.129 66.0091 311.367 65.4863C311.652 64.916 311.818 64.512 311.866 64.2744ZM382.584 80.8848C381.491 81.4076 380.755 82.0492 380.375 82.8096C379.994 83.57 379.685 84.3542 379.448 85.1621C379.258 85.9701 378.996 86.7542 378.664 87.5146C378.378 88.2275 377.737 88.8216 376.739 89.2969C376.501 90.1523 376.026 90.7464 375.313 91.0791C374.648 91.4118 373.935 91.7207 373.174 92.0059C372.414 92.2435 371.725 92.5762 371.107 93.0039C370.537 93.4316 370.251 94.1683 370.251 95.2139C369.301 95.7367 368.255 96.2119 367.115 96.6396C366.022 97.0674 364.857 97.3763 363.622 97.5664C362.433 97.804 361.245 97.8991 360.057 97.8516C358.869 97.804 357.752 97.5664 356.707 97.1387C355.994 96.806 355.305 96.3783 354.639 95.8555C354.402 95.6654 354.164 95.499 353.926 95.3564C353.736 95.2614 353.522 95.0951 353.285 94.8574C352.714 94.2871 352.239 93.6217 351.859 92.8613C351.479 92.1009 351.17 91.293 350.932 90.4375C350.694 89.582 350.504 88.7266 350.362 87.8711C350.219 87.0156 350.1 86.2077 350.005 85.4473L352.643 78.3184C351.265 77.2253 350.148 75.9658 349.292 74.54C348.437 73.0667 347.391 71.7122 346.156 70.4766C345.918 70.8092 345.609 71.0944 345.229 71.332C344.849 71.5697 344.706 71.9499 344.801 72.4727L345.514 73.1143C343.946 74.8252 342.354 76.7738 340.738 78.96C339.169 81.0986 337.934 83.2611 337.031 85.4473C335.985 85.3997 335.249 85.6611 334.821 86.2314C334.393 86.7542 334.037 87.3721 333.751 88.085C333.466 88.7503 333.11 89.3682 332.682 89.9385C332.254 90.5088 331.542 90.7464 330.543 90.6514C330.306 91.1742 330.068 91.7445 329.831 92.3623C329.593 92.9326 329.308 93.4792 328.975 94.002C328.642 94.5247 328.238 94.9525 327.763 95.2852C327.288 95.6654 326.694 95.8555 325.981 95.8555C325.601 95.4753 325.387 95.0713 325.339 94.6436C325.292 94.2158 325.339 93.7881 325.482 93.3604C325.625 92.8851 325.815 92.4336 326.052 92.0059C326.29 91.5306 326.456 91.0791 326.551 90.6514C326.931 89.2731 327.621 88.0374 328.619 86.9443C329.617 85.8037 330.615 84.6868 331.613 83.5938C332.611 82.4531 333.466 81.265 334.179 80.0293C334.892 78.7936 335.177 77.3441 335.035 75.6807C335.653 75.6331 336.27 75.5143 336.888 75.3242C337.554 75.0866 338.148 74.8014 338.67 74.4688C339.241 74.0885 339.668 73.637 339.954 73.1143C340.286 72.5439 340.405 71.8786 340.31 71.1182C339.93 70.9281 339.716 70.6667 339.668 70.334C339.621 69.9538 339.621 69.5736 339.668 69.1934C340.714 68.8607 341.546 68.2904 342.164 67.4824C342.829 66.627 343.423 65.724 343.946 64.7734C344.469 63.8229 344.968 62.8724 345.443 61.9219C345.966 60.9238 346.631 60.0684 347.439 59.3555C348.104 59.7357 348.77 60.0684 349.435 60.3535C350.1 60.5911 350.742 60.9238 351.36 61.3516C350.932 61.9219 350.671 62.4684 350.576 62.9912C350.481 63.514 350.433 64.0605 350.433 64.6309C350.433 65.1536 350.433 65.6764 350.433 66.1992C350.433 66.722 350.291 67.2686 350.005 67.8389C350.766 68.5042 351.407 69.2884 351.93 70.1914C352.453 71.0944 353.118 71.8548 353.926 72.4727C354.497 72.0449 355.138 71.8311 355.851 71.8311C356.564 71.7835 357.277 71.7835 357.99 71.8311C358.75 71.8311 359.463 71.7835 360.128 71.6885C360.794 71.5459 361.34 71.1419 361.768 70.4766C361.958 70.6667 362.243 70.7617 362.624 70.7617C363.004 70.7617 363.384 70.7617 363.764 70.7617C364.144 70.7617 364.477 70.833 364.762 70.9756C365.047 71.0706 365.214 71.2845 365.261 71.6172C365.309 71.9974 365.285 72.2588 365.19 72.4014C365.142 72.5439 365.071 72.7816 364.976 73.1143C364.881 73.4945 364.857 73.6846 364.905 73.6846C364.952 73.6846 364.905 73.8509 364.762 74.1836C364.525 74.8014 364.121 75.3242 363.55 75.752C363.028 76.1797 362.481 76.6074 361.911 77.0352C361.388 77.4154 360.889 77.8669 360.414 78.3896C359.986 78.8649 359.772 79.4827 359.772 80.2432C358.726 80.6234 357.99 81.1937 357.562 81.9541C357.134 82.667 356.849 83.4987 356.707 84.4492C356.564 85.3522 356.469 86.3027 356.421 87.3008C356.374 88.2513 356.208 89.1305 355.922 89.9385L356.564 90.6514L357.134 89.9385C357.8 90.889 358.584 91.4831 359.487 91.7207C360.437 91.9583 361.412 92.0296 362.41 91.9346C362.885 91.2217 363.431 90.6514 364.049 90.2236C364.715 89.7959 365.404 89.4395 366.117 89.1543C366.877 88.8691 367.638 88.6077 368.398 88.3701C369.206 88.1325 369.966 87.8473 370.679 87.5146C371.25 87.2295 371.725 86.9206 372.105 86.5879C372.533 86.2552 372.984 85.875 373.459 85.4473C374.885 84.1165 376.287 82.8096 377.666 81.5264C379.091 80.2432 380.517 78.9362 381.943 77.6055C382.228 77.6055 382.418 77.748 382.513 78.0332C382.608 78.3184 382.656 78.651 382.656 79.0312C382.656 79.3639 382.632 79.7204 382.584 80.1006C382.584 80.4333 382.584 80.6947 382.584 80.8848ZM397.84 50.5156C396.985 50.8483 396.51 51.3473 396.415 52.0127C396.319 52.6781 396.272 53.3672 396.272 54.0801C396.319 54.793 396.296 55.4583 396.201 56.0762C396.106 56.694 395.63 57.098 394.775 57.2881C394.442 56.7178 394.014 56.195 393.492 55.7197C393.016 55.1969 392.541 54.6979 392.066 54.2227C391.591 53.6999 391.21 53.1533 390.925 52.583C390.64 52.0127 390.545 51.3236 390.64 50.5156L394.205 46.3809C394.775 46.571 395.226 46.8086 395.559 47.0938C395.892 47.3789 396.177 47.7116 396.415 48.0918C396.652 48.472 396.866 48.876 397.056 49.3037C397.294 49.6839 397.555 50.0879 397.84 50.5156ZM411.67 82.4531C411.718 83.4987 411.623 84.2354 411.385 84.6631C411.195 85.0908 410.958 85.4473 410.672 85.7324C410.387 85.9701 410.126 86.2552 409.888 86.5879C409.698 86.873 409.603 87.3958 409.603 88.1562C408.51 89.3444 407.631 90.2236 406.965 90.7939C406.3 91.3167 405.658 91.7682 405.041 92.1484C404.423 92.4811 403.734 92.8613 402.973 93.2891C402.213 93.7168 401.167 94.3822 399.836 95.2852L399.337 95.3564C399.195 96.0693 398.933 96.4733 398.553 96.5684C398.221 96.7109 397.817 96.7822 397.341 96.7822C396.914 96.7822 396.486 96.8298 396.058 96.9248C395.63 97.0199 395.274 97.4238 394.989 98.1367C394.181 98.3743 393.492 98.4694 392.921 98.4219C392.351 98.3743 391.614 98.3506 390.711 98.3506C390.426 98.3506 390.046 98.3268 389.571 98.2793C389.143 98.2318 388.787 98.2555 388.501 98.3506C388.311 98.3981 388.097 98.5169 387.86 98.707C387.67 98.9447 387.456 99.1348 387.218 99.2773C386.981 99.4199 386.743 99.4674 386.505 99.4199C386.268 99.4199 386.054 99.2298 385.864 98.8496C385.293 98.9922 384.771 98.9922 384.295 98.8496C383.82 98.707 383.369 98.4694 382.941 98.1367C382.513 97.804 382.109 97.4001 381.729 96.9248C381.396 96.4971 381.064 96.0931 380.731 95.7129C380.493 95.4277 380.232 95.1663 379.947 94.9287C379.662 94.6911 379.4 94.4535 379.163 94.2158C378.64 93.693 378.26 93.0277 378.022 92.2197C377.784 91.4118 377.642 90.5801 377.594 89.7246C377.547 88.8691 377.57 88.0137 377.666 87.1582C377.761 86.3027 377.903 85.5423 378.093 84.877C378.521 84.4492 378.83 83.974 379.02 83.4512C379.163 82.8809 379.281 82.3105 379.376 81.7402C379.519 81.1699 379.662 80.6234 379.804 80.1006C379.994 79.5303 380.303 79.0312 380.731 78.6035C380.731 77.9857 380.826 77.4154 381.016 76.8926C381.254 76.3698 381.539 75.8708 381.872 75.3955C382.252 74.9202 382.656 74.4925 383.083 74.1123C383.559 73.6846 383.986 73.2806 384.367 72.9004C384.747 72.9004 385.127 72.9004 385.507 72.9004C385.888 72.8529 386.244 72.8766 386.577 72.9717C386.909 73.0192 387.194 73.1618 387.432 73.3994C387.67 73.5895 387.86 73.9222 388.002 74.3975C388.335 75.6807 388.24 76.7262 387.717 77.5342C387.242 78.2946 386.695 79.0312 386.078 79.7441C385.46 80.457 384.961 81.1937 384.581 81.9541C384.2 82.7145 384.295 83.6888 384.866 84.877C384.343 84.877 383.986 85.0195 383.796 85.3047C383.654 85.5898 383.535 85.9225 383.44 86.3027C383.392 86.6354 383.297 86.9681 383.155 87.3008C383.012 87.6335 382.727 87.8711 382.299 88.0137C382.584 88.2988 382.727 88.7979 382.727 89.5107C382.775 90.2236 382.846 90.9128 382.941 91.5781C383.083 92.196 383.297 92.695 383.583 93.0752C383.915 93.4554 384.509 93.4792 385.365 93.1465C385.983 93.6693 386.719 93.8831 387.575 93.7881C388.478 93.693 389.309 93.6693 390.07 93.7168C390.735 93.2891 391.306 93.0752 391.781 93.0752C392.256 93.0277 392.708 93.0752 393.135 93.2178C393.563 93.3128 394.014 93.4079 394.49 93.5029C394.965 93.598 395.535 93.5267 396.201 93.2891C396.391 92.4811 396.723 92.0059 397.199 91.8633C397.674 91.7207 398.149 91.6494 398.625 91.6494C399.1 91.6019 399.528 91.5068 399.908 91.3643C400.335 91.2217 400.621 90.7464 400.763 89.9385C401.143 89.4632 401.595 89.2018 402.118 89.1543C402.64 89.0592 403.163 88.9642 403.686 88.8691C404.256 88.7741 404.755 88.584 405.183 88.2988C405.658 87.9661 405.991 87.3483 406.181 86.4453C406.989 85.8275 407.559 85.376 407.892 85.0908C408.272 84.7581 408.581 84.4967 408.819 84.3066C409.056 84.1165 409.365 83.9027 409.746 83.665C410.126 83.4274 410.767 83.0234 411.67 82.4531ZM454.515 72.6152C454.705 73.3281 454.634 73.946 454.301 74.4688C453.969 74.944 453.517 75.3717 452.947 75.752C452.424 76.1322 451.83 76.4886 451.165 76.8213C450.547 77.1064 450.024 77.4391 449.596 77.8193C447.458 78.2946 445.509 78.651 443.75 78.8887C442.04 79.0788 440.139 79.3402 438.047 79.6729C437.43 79.7679 436.835 79.7679 436.265 79.6729C435.742 79.5303 435.196 79.4827 434.625 79.5303C434.293 79.5303 433.984 79.5303 433.699 79.5303C433.414 79.4827 433.128 79.4827 432.843 79.5303C431.75 79.6253 431.037 80.0055 430.705 80.6709C430.372 81.2887 430.087 82.0254 429.849 82.8809C429.659 83.6888 429.398 84.473 429.065 85.2334C428.78 85.9463 428.138 86.4453 427.14 86.7305C427.045 86.9681 427.069 87.182 427.211 87.3721C427.402 87.5622 427.544 87.7285 427.639 87.8711C426.831 88.1087 426.285 88.5365 426 89.1543C425.762 89.7721 425.548 90.39 425.358 91.0078C425.168 91.6257 424.883 92.1484 424.502 92.5762C424.17 93.0039 423.504 93.1465 422.506 93.0039C421.033 94.5723 419.298 95.8317 417.302 96.7822C415.306 97.7803 413.239 98.4219 411.1 98.707C410.72 98.5169 410.34 98.2793 409.959 97.9941C409.627 97.709 409.27 97.4476 408.89 97.21C408.557 96.9723 408.177 96.7822 407.75 96.6396C407.369 96.5446 406.918 96.5446 406.395 96.6396C406.347 95.6416 406.157 94.7148 405.825 93.8594C405.444 93.0039 404.969 92.196 404.399 91.4355C404.304 90.5801 404.423 89.7959 404.755 89.083C405.041 88.3226 405.349 87.5859 405.682 86.873C406.015 86.1602 406.3 85.4473 406.538 84.7344C406.728 83.974 406.68 83.1185 406.395 82.168C406.87 81.8828 407.179 81.5501 407.322 81.1699C407.512 80.7897 407.631 80.4095 407.678 80.0293C407.773 79.6016 407.892 79.2214 408.035 78.8887C408.177 78.5085 408.51 78.1995 409.033 77.9619C408.653 76.8213 408.7 75.9896 409.175 75.4668C409.698 74.8965 410.316 74.3975 411.029 73.9697C411.742 73.542 412.407 73.0667 413.025 72.5439C413.643 72.0212 413.88 71.237 413.738 70.1914C414.023 69.9062 414.356 69.6686 414.736 69.4785C415.116 69.2884 415.472 69.1221 415.805 68.9795C416.185 68.7894 416.542 68.5993 416.875 68.4092C417.207 68.2191 417.516 67.9577 417.801 67.625C417.469 67.3874 417.302 67.1497 417.302 66.9121C417.35 66.6745 417.421 66.4368 417.516 66.1992C417.611 65.9141 417.706 65.6289 417.801 65.3438C417.944 65.0586 417.944 64.7734 417.801 64.4883C419.084 64.6784 420.201 64.512 421.152 63.9893C422.15 63.4189 423.077 62.8486 423.932 62.2783C424.835 61.708 425.738 61.304 426.641 61.0664C427.544 60.8288 428.59 61.1139 429.778 61.9219C429.873 62.2546 430.015 62.7536 430.206 63.4189C430.443 64.0368 430.657 64.6784 430.847 65.3438C431.085 66.0091 431.299 66.6507 431.489 67.2686C431.679 67.8864 431.798 68.3379 431.845 68.623C431.845 68.8607 431.845 69.2409 431.845 69.7637C431.845 70.2865 431.845 70.8568 431.845 71.4746C431.845 72.0449 431.845 72.5915 431.845 73.1143C431.845 73.637 431.845 74.041 431.845 74.3262C433.223 75.1341 434.602 75.6331 435.98 75.8232C437.358 75.9658 438.736 75.6331 440.115 74.8252C440.638 75.3005 441.137 75.443 441.612 75.2529C442.087 75.0153 442.539 74.7539 442.966 74.4688C443.442 74.1836 443.917 74.041 444.392 74.041C444.867 73.9935 445.343 74.3737 445.818 75.1816C446.483 74.5638 447.172 74.1836 447.885 74.041C448.598 73.8509 449.335 73.7559 450.095 73.7559C450.856 73.7083 451.592 73.637 452.305 73.542C453.066 73.4469 453.802 73.138 454.515 72.6152ZM427.14 73.8271C427.14 73.1143 427.259 72.3538 427.497 71.5459C427.734 70.738 427.924 69.9538 428.067 69.1934C428.209 68.3854 428.186 67.625 427.996 66.9121C427.853 66.1992 427.402 65.5576 426.641 64.9873C426.118 65.2725 425.691 65.6764 425.358 66.1992C425.025 66.6745 424.693 67.1735 424.36 67.6963C424.027 68.1715 423.623 68.5755 423.148 68.9082C422.72 69.2409 422.15 69.3359 421.437 69.1934C421.199 69.7637 421.199 70.2389 421.437 70.6191C421.675 70.9518 421.96 71.2845 422.292 71.6172C422.625 71.9023 422.934 72.2113 423.219 72.5439C423.552 72.8766 423.671 73.3044 423.576 73.8271C423.766 73.9697 424.027 74.1123 424.36 74.2549C424.693 74.3499 425.025 74.4212 425.358 74.4688C425.738 74.4688 426.095 74.4212 426.427 74.3262C426.76 74.2311 426.998 74.0648 427.14 73.8271ZM426.641 79.5303C425.691 79.5303 424.859 79.3164 424.146 78.8887C423.481 78.4134 422.792 77.8906 422.079 77.3203C421.413 76.75 420.7 76.2272 419.94 75.752C419.227 75.2292 418.348 74.9202 417.302 74.8252C416.875 75.3955 416.375 75.9421 415.805 76.4648C415.235 76.9401 414.736 77.4629 414.308 78.0332C413.88 78.6035 413.571 79.2214 413.381 79.8867C413.239 80.5521 413.358 81.3125 413.738 82.168C412.645 82.6908 411.908 83.4512 411.528 84.4492C411.148 85.3997 410.886 86.4453 410.744 87.5859C410.649 88.7266 410.554 89.8672 410.458 91.0078C410.363 92.1484 410.055 93.1702 409.532 94.0732L411.1 93.0039C411.29 93.099 411.433 93.2415 411.528 93.4316C411.67 93.6217 411.694 93.8356 411.599 94.0732C411.979 93.693 412.407 93.4079 412.882 93.2178C413.358 92.9801 413.833 92.8138 414.308 92.7188C414.831 92.5762 415.33 92.4574 415.805 92.3623C416.328 92.2673 416.827 92.1247 417.302 91.9346C418.49 92.5999 419.346 92.7425 419.869 92.3623C420.391 91.9821 420.819 91.4118 421.152 90.6514C421.485 89.891 421.841 89.1068 422.221 88.2988C422.601 87.4434 423.219 86.9206 424.075 86.7305L423.576 86.2314C424.384 85.2334 425.097 84.2116 425.714 83.166C426.38 82.0729 426.689 80.861 426.641 79.5303ZM495.506 32.4795C495.459 34.2855 495.292 36.0439 495.007 37.7549C494.722 39.4658 494.176 41.1055 493.368 42.6738L493.439 42.7451C493.962 43.5531 494.199 44.361 494.152 45.1689C494.104 45.9294 493.914 46.7135 493.582 47.5215C493.296 48.2819 492.94 49.0661 492.512 49.874C492.132 50.6344 491.871 51.3949 491.728 52.1553C490.825 52.5355 490.302 53.0583 490.16 53.7236C490.017 54.3415 489.922 55.0068 489.875 55.7197C489.875 56.3851 489.756 57.0505 489.518 57.7158C489.28 58.3337 488.639 58.8089 487.593 59.1416L487.166 59.2842C487.973 60.0921 488.33 60.805 488.235 61.4229C488.187 61.9932 487.902 62.5397 487.379 63.0625C486.904 63.5378 486.31 64.013 485.597 64.4883C484.884 64.916 484.29 65.3675 483.815 65.8428C483.958 65.9378 484.1 66.0566 484.243 66.1992C484.385 66.2943 484.504 66.3893 484.599 66.4844C484.076 66.9596 483.506 67.4349 482.888 67.9102C482.318 68.3379 481.771 68.8132 481.249 69.3359C480.726 69.8112 480.274 70.3577 479.894 70.9756C479.514 71.5459 479.3 72.235 479.252 73.043C479.062 73.2806 478.801 73.4469 478.468 73.542C478.183 73.637 477.874 73.7321 477.542 73.8271C477.256 73.8747 476.971 73.9697 476.686 74.1123C476.448 74.2074 476.258 74.3975 476.116 74.6826L476.044 74.7539C476.044 75.0866 476.092 75.4906 476.187 75.9658C475.284 76.0609 474.5 76.2985 473.834 76.6787C473.169 77.0114 472.551 77.4391 471.981 77.9619C471.458 78.4847 470.912 79.055 470.341 79.6729C469.819 80.2907 469.248 80.861 468.63 81.3838H468.559V81.2412C468.464 81.1462 468.369 81.0749 468.274 81.0273C468.179 80.9798 468.084 80.9085 467.989 80.8135C467.751 80.766 467.395 80.9085 466.919 81.2412C466.444 81.5739 466.135 81.8353 465.993 82.0254C465.755 82.5482 465.422 83.071 464.995 83.5938C464.614 84.069 464.282 84.568 463.997 85.0908C463.759 85.5661 463.64 86.0889 463.64 86.6592C463.688 87.2295 464.044 87.8473 464.709 88.5127C464.377 89.1781 464.282 89.891 464.424 90.6514C464.614 91.4118 464.805 92.1484 464.995 92.8613C465.232 93.5267 465.399 94.1683 465.494 94.7861C465.589 95.3564 465.399 95.8317 464.923 96.2119C464.971 96.5921 465.018 96.9248 465.066 97.21C465.161 97.5426 465.422 97.804 465.85 97.9941H466.563C466.468 98.8021 466.42 99.8239 466.42 101.06C466.468 102.295 466.468 103.555 466.42 104.838C466.373 106.121 466.278 107.333 466.135 108.474C465.993 109.614 465.731 110.493 465.351 111.111C465.731 111.492 466.111 111.824 466.492 112.109C466.872 112.442 467.086 112.894 467.133 113.464C467.133 113.987 466.991 114.509 466.706 115.032C466.468 115.555 466.207 116.054 465.921 116.529C465.684 117.052 465.494 117.551 465.351 118.026C465.256 118.502 465.399 118.977 465.779 119.452C464.923 119.927 464.353 120.498 464.068 121.163C463.783 121.876 463.64 122.684 463.64 123.587C463.64 124.205 463.664 125.013 463.711 126.011C463.759 127.056 463.664 127.84 463.426 128.363C463.141 128.934 462.832 129.504 462.5 130.074C462.214 130.645 461.929 131.215 461.644 131.785C461.074 132.973 460.551 134.161 460.076 135.35C459.648 136.585 459.196 137.821 458.721 139.057C458.626 139.389 458.507 139.698 458.365 139.983C458.27 140.269 458.175 140.577 458.08 140.91C457.367 140.768 456.868 140.815 456.583 141.053C456.297 141.29 456.06 141.552 455.87 141.837C455.68 142.17 455.442 142.479 455.157 142.764C454.872 143.096 454.349 143.263 453.588 143.263V143.477C453.398 144.57 452.828 145.544 451.877 146.399C450.927 147.255 449.834 148.063 448.598 148.823C447.362 149.631 446.127 150.392 444.891 151.104C443.655 151.865 442.657 152.625 441.897 153.386H441.826C440.97 153.291 440.162 153.505 439.402 154.027C438.641 154.55 437.881 155.025 437.121 155.453C436.36 155.928 435.552 156.214 434.697 156.309C433.794 156.451 432.819 156.095 431.774 155.239V155.168C431.536 155.215 431.37 155.239 431.275 155.239C431.18 155.239 431.109 155.239 431.061 155.239C431.014 155.287 430.966 155.334 430.918 155.382C430.823 155.477 430.681 155.619 430.491 155.81V155.738C429.683 155.263 428.994 154.669 428.423 153.956C427.853 153.291 427.449 152.507 427.211 151.604C427.306 151.508 427.425 151.39 427.568 151.247C427.663 151.152 427.758 151.057 427.853 150.962C427.188 150.582 426.736 150.035 426.499 149.322C426.213 148.657 426.047 147.92 426 147.112C425.904 146.304 425.857 145.496 425.857 144.688C425.809 143.928 425.667 143.263 425.429 142.692C426.142 142.597 426.736 142.265 427.211 141.694C427.639 141.172 428.091 140.696 428.566 140.269C428.471 140.174 428.4 139.936 428.352 139.556C428.257 139.175 428.209 138.938 428.209 138.843C428.162 137.94 428.281 137.061 428.566 136.205C428.851 135.35 429.208 134.518 429.635 133.71C430.063 132.95 430.491 132.165 430.918 131.357C431.346 130.597 431.703 129.789 431.988 128.934C432.986 128.126 433.77 127.27 434.34 126.367C434.863 125.512 435.386 124.514 435.909 123.373C436.051 123.04 436.265 122.613 436.55 122.09C436.788 121.567 437.073 121.044 437.406 120.521C437.738 119.999 438.095 119.523 438.475 119.096C438.855 118.715 439.236 118.454 439.616 118.312C439.568 118.216 439.544 118.003 439.544 117.67C439.544 116.862 439.83 116.173 440.4 115.603C440.923 115.08 441.445 114.557 441.968 114.034C442.491 113.511 442.895 112.941 443.18 112.323C443.418 111.705 443.251 110.897 442.681 109.899C444.012 108.711 445.081 107.381 445.889 105.907C446.697 104.481 447.41 103.032 448.028 101.559C448.693 100.085 449.359 98.6357 450.024 97.21C450.737 95.7842 451.664 94.501 452.804 93.3604L452.947 93.2178C452.757 92.3148 452.519 91.6732 452.234 91.293C451.996 90.8652 451.664 90.6038 451.236 90.5088C450.856 90.3662 450.404 90.2949 449.881 90.2949C449.406 90.2474 448.86 90.1761 448.242 90.0811C447.671 89.9385 447.03 89.6771 446.317 89.2969C445.604 88.8691 444.844 88.2038 444.036 87.3008C443.37 86.9206 442.919 86.5641 442.681 86.2314C442.396 85.8512 442.182 85.471 442.04 85.0908C441.849 84.7106 441.683 84.3304 441.541 83.9502C441.398 83.5225 441.137 83.0472 440.756 82.5244C441.612 82.0016 442.016 81.4313 441.968 80.8135C441.873 80.1481 441.659 79.5303 441.327 78.96C440.946 78.3421 440.59 77.7718 440.257 77.249C439.925 76.7262 439.877 76.3223 440.115 76.0371C440.305 75.6094 440.661 75.3242 441.184 75.1816C441.707 75.0391 442.158 74.8965 442.539 74.7539C442.444 74.3262 442.491 73.9222 442.681 73.542C442.824 73.1618 443.061 72.8291 443.394 72.5439C443.679 72.2113 444.012 71.9499 444.392 71.7598C444.772 71.5221 445.153 71.332 445.533 71.1895C445.96 71.2845 446.293 71.2845 446.531 71.1895C446.816 71.0944 447.054 70.9756 447.244 70.833C447.481 70.6904 447.648 70.5479 447.743 70.4053C447.885 70.2152 448.028 70.0964 448.17 70.0488L448.099 69.4785C448.907 69.2409 449.62 69.3122 450.238 69.6924C450.856 70.0251 451.45 70.429 452.02 70.9043C452.685 71.4271 453.279 71.8548 453.802 72.1875C454.325 72.4727 455.014 72.5439 455.87 72.4014H455.941C456.179 72.639 456.416 72.8529 456.654 73.043C456.939 73.1855 457.2 73.3519 457.438 73.542C457.676 73.3994 457.866 73.2568 458.008 73.1143C458.151 72.9242 458.389 72.9004 458.721 73.043L458.151 73.6133L461.145 75.9658L462.927 73.542L462.571 73.4707L462.072 72.9717C462.072 72.5915 462.191 72.2826 462.428 72.0449C462.713 71.8073 462.856 71.4984 462.856 71.1182C462.761 70.9281 462.666 70.8092 462.571 70.7617L462.713 70.6191C463.711 70.7142 464.306 70.5716 464.496 70.1914C464.733 69.8112 464.852 69.3597 464.852 68.8369C464.9 68.3141 464.995 67.7676 465.137 67.1973C465.28 66.5794 465.803 66.1042 466.706 65.7715C465.945 65.0586 465.636 64.5358 465.779 64.2031C465.921 63.8704 466.207 63.609 466.634 63.4189C467.11 63.1813 467.609 62.9199 468.131 62.6348C468.654 62.3496 468.916 61.8981 468.916 61.2803C468.916 61.0426 468.892 60.8525 468.844 60.71C468.797 60.5199 468.773 60.306 468.773 60.0684C468.773 59.0228 469.034 58.0723 469.557 57.2168C470.127 56.3613 470.722 55.5296 471.339 54.7217C472.005 53.9137 472.575 53.082 473.05 52.2266C473.573 51.3236 473.763 50.3255 473.621 49.2324C473.621 49.0898 473.573 48.876 473.478 48.5908C473.906 47.5452 474.429 46.5472 475.046 45.5967C475.664 44.6462 476.258 43.6956 476.829 42.7451C477.399 41.7946 477.922 40.8203 478.397 39.8223C478.92 38.8242 479.3 37.7786 479.538 36.6855C479.728 36.638 479.965 36.5905 480.25 36.543C480.536 36.4954 480.726 36.3291 480.821 36.0439C480.773 35.8063 480.75 35.5924 480.75 35.4023C480.75 35.2122 480.726 35.0221 480.678 34.832H480.75C481.13 34.8796 481.391 34.8558 481.534 34.7607C481.676 34.6182 481.866 34.4281 482.104 34.1904C482.199 34.0954 482.294 34.0003 482.389 33.9053C482.532 33.8102 482.627 33.6914 482.674 33.5488C482.769 32.028 483.197 30.8398 483.958 29.9844C484.718 29.0814 485.597 28.1309 486.595 27.1328C488.876 26.4674 490.73 26.7051 492.156 27.8457C493.582 28.9388 494.698 30.4834 495.506 32.4795ZM491.229 38.6816C490.991 38.5391 490.825 38.2064 490.73 37.6836C490.635 37.1608 490.516 36.5905 490.374 35.9727C490.231 35.3548 490.017 34.8083 489.732 34.333C489.494 33.8577 489.114 33.5726 488.591 33.4775L488.449 33.6201C487.783 34.4281 487.142 35.3548 486.524 36.4004C485.906 37.3984 485.288 38.444 484.67 39.5371C484.1 40.6302 483.53 41.7233 482.959 42.8164C482.437 43.9095 481.961 44.9076 481.534 45.8105C481.439 46.0482 481.177 46.571 480.75 47.3789C480.322 48.1868 479.87 49.0661 479.395 50.0166C478.92 50.9196 478.468 51.7513 478.041 52.5117C477.613 53.2246 477.375 53.6048 477.328 53.6523V53.7236C477.185 54.6266 476.947 55.5771 476.615 56.5752C476.33 57.5732 475.949 58.5475 475.474 59.498C475.046 60.4486 474.547 61.3516 473.977 62.207C473.407 63.015 472.765 63.7041 472.052 64.2744C472.005 64.3219 471.957 64.3457 471.91 64.3457C471.91 64.3457 471.886 64.3695 471.838 64.417L471.981 64.5596C472.741 65.6051 473.003 66.4606 472.765 67.126C472.528 67.7438 472.124 68.3141 471.553 68.8369C471.03 69.3597 470.484 69.93 469.914 70.5479C469.343 71.1657 469.106 71.9736 469.201 72.9717C469.201 73.4945 469.343 73.9935 469.628 74.4688H470.912C471.577 73.8509 472.1 73.138 472.48 72.3301C472.908 71.4746 473.359 70.6904 473.834 69.9775C474.31 69.2646 474.88 68.6706 475.545 68.1953C476.211 67.6725 477.138 67.4111 478.326 67.4111L478.183 66.1992C479.704 64.6784 480.94 62.9437 481.89 60.9951C482.841 59.0465 483.387 57.0029 483.53 54.8643C484.29 54.5791 484.789 54.1989 485.027 53.7236C485.312 53.2008 485.502 52.6305 485.597 52.0127C485.74 51.3949 485.906 50.777 486.096 50.1592C486.334 49.5413 486.785 48.971 487.451 48.4482L487.593 48.3057C487.593 48.068 487.569 47.8542 487.522 47.6641C487.474 47.4264 487.451 47.1888 487.451 46.9512C487.451 46.1432 487.569 45.3828 487.807 44.6699C488.092 43.957 488.425 43.2917 488.805 42.6738C489.233 42.0085 489.661 41.3669 490.088 40.749C490.516 40.0837 490.896 39.3945 491.229 38.6816ZM457.082 81.8828C456.606 81.4076 456.321 80.9085 456.226 80.3857C456.131 79.863 456.06 79.3639 456.012 78.8887C455.965 78.4134 455.846 77.9857 455.656 77.6055C455.513 77.1777 455.133 76.8451 454.515 76.6074L454.444 76.5361C454.111 76.6787 453.683 76.7738 453.161 76.8213C452.685 76.8688 452.163 76.8688 451.592 76.8213C451.069 76.7262 450.547 76.6074 450.024 76.4648C449.549 76.3223 449.168 76.1559 448.883 75.9658L448.812 76.0371C447.576 76.8451 446.768 77.7956 446.388 78.8887C446.056 79.9342 445.984 81.1699 446.174 82.5957C446.174 82.6908 446.174 82.8096 446.174 82.9521C446.222 83.0947 446.269 83.2848 446.317 83.5225C446.364 83.7601 446.412 84.0215 446.459 84.3066C447.172 85.0671 447.838 85.4473 448.456 85.4473C449.073 85.4473 449.667 85.2809 450.238 84.9482C450.808 84.568 451.378 84.1403 451.949 83.665C452.519 83.1423 453.113 82.762 453.731 82.5244H453.802C455.133 83.3324 456.226 83.1185 457.082 81.8828ZM461.145 112.038C461.05 111.705 461.002 111.349 461.002 110.969C461.05 110.636 461.24 110.398 461.573 110.256C461.193 109.923 460.955 109.614 460.86 109.329C460.765 109.044 460.717 108.759 460.717 108.474C460.717 108.188 460.717 107.903 460.717 107.618C460.717 107.381 460.646 107.072 460.503 106.691C460.694 105.788 460.765 104.885 460.717 103.982C460.717 103.079 460.646 102.176 460.503 101.273C460.408 100.418 460.29 99.5387 460.147 98.6357C460.004 97.7327 459.933 96.8298 459.933 95.9268C459.173 95.6416 458.697 95.5703 458.507 95.7129C458.317 95.903 458.198 96.1406 458.151 96.4258C458.151 96.7585 458.08 97.0674 457.937 97.3525C457.842 97.6377 457.462 97.7803 456.796 97.7803V98.0654C457.034 98.4932 456.986 98.9447 456.654 99.4199C456.321 99.8952 455.917 100.394 455.442 100.917C454.967 101.44 454.515 101.963 454.087 102.485C453.66 103.056 453.446 103.65 453.446 104.268C452.733 104.743 452.234 105.313 451.949 105.979C451.711 106.691 451.497 107.381 451.307 108.046C451.165 108.759 450.927 109.4 450.594 109.971C450.309 110.589 449.763 111.04 448.955 111.325C448.86 111.42 448.812 111.492 448.812 111.539C448.574 112.299 448.337 112.941 448.099 113.464C447.861 113.987 447.624 114.486 447.386 114.961C447.149 115.436 446.863 115.911 446.531 116.387C446.198 116.862 445.794 117.409 445.319 118.026C444.368 119.262 443.584 120.45 442.966 121.591C442.301 122.779 441.897 124.157 441.754 125.726C440.566 125.916 439.758 126.367 439.331 127.08C438.855 127.793 438.523 128.601 438.333 129.504C438.142 130.407 437.976 131.31 437.833 132.213C437.643 133.163 437.263 133.971 436.693 134.637H436.622C435.956 135.635 435.267 136.633 434.554 137.631C433.841 138.676 433.2 139.722 432.629 140.768C432.059 141.861 431.608 142.978 431.275 144.118C430.895 145.259 430.705 146.471 430.705 147.754C431.275 148.419 431.94 148.895 432.701 149.18C433.461 149.512 434.222 149.845 434.982 150.178L435.053 150.106C436.004 149.964 436.835 149.702 437.548 149.322C438.214 148.99 438.855 148.609 439.473 148.182C440.043 147.754 440.638 147.279 441.255 146.756C441.826 146.281 442.491 145.829 443.251 145.401C444.25 145.449 445.129 145.33 445.889 145.045C446.602 144.807 447.244 144.427 447.814 143.904C448.432 143.429 448.978 142.859 449.454 142.193C449.929 141.528 450.404 140.815 450.879 140.055C451.307 139.247 451.877 138.368 452.59 137.417C453.303 136.466 454.064 135.777 454.872 135.35C454.919 135.35 454.943 135.326 454.943 135.278C454.99 135.278 455.038 135.278 455.085 135.278C454.943 135.088 454.8 134.779 454.658 134.352C454.515 133.971 454.444 133.662 454.444 133.425C454.396 132.284 454.681 131.31 455.299 130.502C455.965 129.694 456.606 128.91 457.224 128.149C457.842 127.389 458.27 126.581 458.507 125.726C458.745 124.918 458.46 123.92 457.652 122.731C458.507 122.114 459.054 121.377 459.292 120.521C459.529 119.714 459.695 118.858 459.791 117.955C459.886 117.1 460.004 116.22 460.147 115.317C460.337 114.462 460.836 113.63 461.644 112.822L461.858 112.608L461.145 112.038ZM529.939 93.4316C530.224 93.6217 530.343 93.7881 530.295 93.9307C530.248 94.0732 530.129 94.2158 529.939 94.3584C529.796 94.501 529.606 94.6198 529.369 94.7148C529.131 94.7624 528.941 94.8099 528.798 94.8574L526.66 95.2852C524.854 95.6654 523.143 96.1882 521.527 96.8535C519.911 97.5664 518.271 98.2555 516.608 98.9209C516.418 98.6833 516.156 98.5169 515.824 98.4219C515.539 98.3268 515.277 98.4219 515.04 98.707C515.087 98.8496 515.111 99.0635 515.111 99.3486C515.111 99.9189 515.087 100.37 515.04 100.703C514.992 101.083 514.897 101.416 514.754 101.701C514.659 101.986 514.493 102.248 514.255 102.485C514.018 102.771 513.709 103.103 513.329 103.483C512.853 103.959 512.925 104.196 513.542 104.196C513.21 104.624 512.853 104.862 512.473 104.909C512.378 104.957 512.236 104.98 512.045 104.98C511.95 104.98 511.855 105.004 511.76 105.052C511.713 105.147 511.76 105.337 511.903 105.622C512.045 105.955 512.14 106.169 512.188 106.264C512.188 106.311 512.117 106.43 511.974 106.62C511.832 106.81 511.689 107 511.546 107.19C511.404 107.428 511.285 107.642 511.19 107.832C511.095 108.07 511.095 108.26 511.19 108.402V108.973C511.428 109.068 511.428 109.139 511.19 109.187C511 109.282 510.881 109.329 510.833 109.329C510.786 109.329 510.643 109.424 510.406 109.614C510.168 109.852 510.049 109.994 510.049 110.042C509.954 110.137 509.835 110.185 509.693 110.185C509.598 110.232 509.479 110.303 509.336 110.398C509.289 110.398 509.218 110.47 509.123 110.612C509.075 110.802 509.028 110.993 508.98 111.183C508.932 111.373 508.885 111.563 508.837 111.753C508.79 111.943 508.79 112.062 508.837 112.109C508.837 112.727 508.766 113.25 508.624 113.678C508.528 114.105 508.41 114.628 508.267 115.246C508.077 116.007 507.792 116.529 507.412 116.814C507.079 117.147 506.722 117.432 506.342 117.67C505.962 117.955 505.582 118.264 505.202 118.597C504.869 118.929 504.608 119.476 504.417 120.236C504.37 120.426 504.322 120.593 504.275 120.735C504.227 120.83 504.204 120.949 504.204 121.092V121.234C504.014 121.567 503.847 121.828 503.705 122.019C503.61 122.256 503.514 122.47 503.419 122.66C503.324 122.85 503.253 123.064 503.206 123.302C503.158 123.539 503.134 123.825 503.134 124.157C503.229 124.3 503.229 124.514 503.134 124.799C503.087 125.084 502.992 125.369 502.849 125.654C502.707 125.939 502.54 126.225 502.35 126.51C502.208 126.795 502.089 127.009 501.994 127.151C501.851 127.389 501.685 127.627 501.495 127.864C501.305 128.102 501.114 128.34 500.924 128.577C499.926 129.955 499.095 131.31 498.429 132.641C497.431 134.637 496.219 136.538 494.793 138.344C494.508 138.676 494.176 139.033 493.795 139.413C493.463 139.793 493.201 140.174 493.011 140.554V141.053C493.011 142.003 492.75 142.716 492.227 143.191C491.704 143.667 491.063 144.118 490.302 144.546C490.065 144.736 489.803 144.926 489.518 145.116C489.233 145.306 488.995 145.544 488.805 145.829C488.52 146.209 488.14 146.685 487.665 147.255C487.142 147.825 486.667 148.229 486.239 148.467C486.144 148.467 485.835 148.443 485.312 148.396C484.789 148.348 484.48 148.324 484.385 148.324C484.29 148.372 484.148 148.467 483.958 148.609C483.72 148.752 483.482 148.895 483.245 149.037C483.007 149.18 482.769 149.299 482.532 149.394C482.294 149.489 482.152 149.512 482.104 149.465C481.819 149.322 481.581 149.251 481.391 149.251C481.296 149.251 481.201 149.299 481.106 149.394C480.963 149.536 480.845 149.655 480.75 149.75C480.369 149.655 480.084 149.607 479.894 149.607C479.799 149.607 479.656 149.512 479.466 149.322C479.229 149.132 479.015 148.895 478.825 148.609C478.587 148.372 478.397 148.134 478.254 147.896C478.064 147.659 477.945 147.493 477.898 147.397C477.565 146.875 477.375 146.257 477.328 145.544C477.28 144.831 477.304 144.071 477.399 143.263C477.446 142.502 477.542 141.742 477.684 140.981C477.827 140.221 477.969 139.556 478.112 138.985C478.349 138.035 478.563 137.061 478.753 136.062C478.944 135.112 479.039 134.161 479.039 133.211C479.039 132.973 479.086 132.783 479.181 132.641C479.276 132.498 479.371 132.355 479.466 132.213C479.561 132.118 479.585 131.999 479.538 131.856C479.49 131.761 479.443 131.666 479.395 131.571C479.347 131.429 479.395 131.144 479.538 130.716C479.68 130.288 479.87 129.813 480.108 129.29C480.298 128.815 480.512 128.34 480.75 127.864C480.94 127.437 481.082 127.151 481.177 127.009C482.128 125.298 483.007 123.492 483.815 121.591C484.575 119.69 485.573 117.979 486.809 116.458C487.522 115.603 488.235 114.747 488.948 113.892C489.661 113.036 490.35 112.133 491.015 111.183C491.3 110.802 491.538 110.517 491.728 110.327C492.013 109.947 492.441 109.638 493.011 109.4C493.582 109.163 494.128 109.091 494.651 109.187C494.698 109.187 494.912 109.044 495.292 108.759C495.72 108.474 495.958 108.307 496.005 108.26C496.195 107.642 496.504 106.977 496.932 106.264C497.36 105.598 497.788 105.004 498.215 104.481C498.5 104.149 498.881 103.911 499.356 103.769C499.831 103.626 500.33 103.483 500.853 103.341C501.423 103.198 501.97 103.008 502.493 102.771C503.015 102.58 503.491 102.224 503.918 101.701C504.251 101.321 504.679 100.869 505.202 100.347C505.772 99.8239 506.319 99.4674 506.841 99.2773C507.317 99.3724 507.958 99.3011 508.766 99.0635C509.622 98.8258 510.192 98.4932 510.477 98.0654C510.715 97.7327 510.833 97.1862 510.833 96.4258C510.833 96.0456 510.976 95.5703 511.261 95C511.594 94.4297 511.855 94.002 512.045 93.7168C512.283 93.3366 512.473 92.9564 512.616 92.5762C512.758 92.196 512.901 91.8158 513.043 91.4355C513.139 91.1979 513.21 90.984 513.257 90.7939C513.305 90.5563 513.352 90.3187 513.4 90.0811C513.447 90.0335 513.542 89.8672 513.685 89.582C513.828 89.2969 513.97 89.0117 514.113 88.7266C514.303 88.4414 514.445 88.18 514.541 87.9424C514.683 87.6572 514.731 87.4909 514.683 87.4434C514.683 87.3958 514.541 87.3483 514.255 87.3008C513.97 87.2533 513.661 87.2295 513.329 87.2295C513.043 87.182 512.758 87.1582 512.473 87.1582C512.188 87.1107 512.022 87.0869 511.974 87.0869C511.784 87.0869 511.499 87.1582 511.119 87.3008C510.786 87.4434 510.406 87.6097 509.978 87.7998C509.598 87.9899 509.265 88.2038 508.98 88.4414C508.695 88.6315 508.528 88.7741 508.481 88.8691C506.96 89.3919 505.439 89.6771 503.918 89.7246C502.398 89.7721 500.877 90.0811 499.356 90.6514C498.453 90.984 497.455 91.2454 496.362 91.4355C495.316 91.5781 494.294 91.6257 493.296 91.5781C493.249 91.5781 493.106 91.5544 492.869 91.5068C492.631 91.4118 492.37 91.3167 492.084 91.2217C491.799 91.0791 491.538 90.9603 491.3 90.8652C491.063 90.7702 490.92 90.7227 490.873 90.7227C490.635 90.6276 490.397 90.4613 490.16 90.2236C489.97 89.9385 489.779 89.6533 489.589 89.3682C489.447 89.0355 489.304 88.7266 489.162 88.4414C489.019 88.1087 488.9 87.8473 488.805 87.6572C488.568 87.1344 488.377 86.6117 488.235 86.0889C488.045 85.5661 487.902 85.0433 487.807 84.5205C487.76 84.5205 487.736 84.3304 487.736 83.9502C487.736 83.7601 487.712 83.5938 487.665 83.4512C487.474 82.168 487.356 80.7422 487.308 79.1738C487.213 77.6055 487.522 76.251 488.235 75.1104C488.425 74.7777 488.639 74.4212 488.876 74.041C489.114 73.6133 489.352 73.2568 489.589 72.9717C489.779 72.734 489.946 72.5439 490.088 72.4014C490.231 72.2588 490.397 72.0687 490.587 71.8311C490.635 71.736 490.73 71.641 490.873 71.5459C491.015 71.4033 491.086 71.3083 491.086 71.2607C491.609 70.738 492.084 70.1914 492.512 69.6211C492.94 69.0508 493.344 68.4805 493.724 67.9102C493.819 67.7676 493.962 67.6012 494.152 67.4111C494.342 67.1735 494.532 66.9596 494.722 66.7695C494.96 66.5319 495.197 66.3656 495.435 66.2705C495.673 66.1279 495.887 66.1042 496.077 66.1992C496.314 66.1992 496.528 66.1992 496.718 66.1992C496.956 66.1992 497.194 66.223 497.431 66.2705C497.669 66.6507 497.835 66.9596 497.93 67.1973C498.073 67.4349 498.144 67.6963 498.144 67.9814C498.192 68.2191 498.192 68.5042 498.144 68.8369C498.144 69.1221 498.144 69.4785 498.144 69.9062C497.906 70.0964 497.645 70.2865 497.36 70.4766C497.075 70.6667 496.79 70.8568 496.504 71.0469C496.409 71.1419 496.243 71.4508 496.005 71.9736C495.815 72.4964 495.601 73.0905 495.364 73.7559C495.174 74.3737 494.984 74.9915 494.793 75.6094C494.651 76.1797 494.556 76.5361 494.508 76.6787C494.223 77.9144 493.724 79.1501 493.011 80.3857C492.346 81.6214 491.585 82.6908 490.73 83.5938L490.659 83.8076C490.991 84.1403 491.277 84.473 491.514 84.8057C491.799 85.0908 492.084 85.376 492.37 85.6611C492.94 85.6611 493.486 85.5898 494.009 85.4473C494.247 85.6374 494.485 85.8275 494.722 86.0176C495.007 86.2077 495.245 86.4215 495.435 86.6592C496.053 86.6592 496.599 86.6592 497.075 86.6592C497.597 86.6592 498.073 86.6354 498.5 86.5879C498.976 86.5404 499.451 86.4453 499.926 86.3027C500.402 86.1602 500.901 85.9225 501.423 85.5898C501.613 85.4948 501.899 85.3285 502.279 85.0908C502.659 84.8057 502.968 84.6631 503.206 84.6631L505.772 84.2354C506.2 84.0452 506.604 83.8314 506.984 83.5938C507.412 83.3086 507.816 83.0472 508.196 82.8096C508.433 82.667 508.695 82.5482 508.98 82.4531C509.313 82.3105 509.598 82.1917 509.835 82.0967C511.309 81.4313 512.568 80.5521 513.614 79.459C514.707 78.3659 515.824 77.2728 516.964 76.1797C517.867 75.3242 518.723 74.3499 519.531 73.2568C520.386 72.1162 521.075 70.9993 521.598 69.9062C521.931 69.0983 522.311 68.2904 522.739 67.4824C523.167 66.627 523.642 65.8665 524.165 65.2012C524.545 64.7734 525.091 64.417 525.804 64.1318C526.517 63.8467 527.159 63.6566 527.729 63.5615C528.109 63.4665 528.466 63.609 528.798 63.9893C529.131 64.3219 529.297 64.6546 529.297 64.9873C529.345 65.8903 529.321 66.6507 529.226 67.2686C529.131 67.8864 528.965 68.4567 528.727 68.9795C528.489 69.4548 528.181 69.9538 527.8 70.4766C527.42 70.9518 526.945 71.5459 526.375 72.2588L524.735 74.3975C524.687 74.4925 524.687 74.5638 524.735 74.6113C524.83 74.6589 524.901 74.7301 524.949 74.8252C524.996 74.9202 524.996 75.0866 524.949 75.3242C524.901 75.5143 524.83 75.752 524.735 76.0371C524.64 76.3223 524.545 76.5837 524.45 76.8213C524.355 77.0589 524.283 77.2015 524.236 77.249C524.188 77.249 524.141 77.3203 524.093 77.4629C524.046 77.5579 523.974 77.653 523.879 77.748L523.594 78.1758C522.976 79.0788 522.454 79.9818 522.026 80.8848C521.646 81.7402 521.503 82.7145 521.598 83.8076C521.598 84.2354 521.479 84.6156 521.242 84.9482C521.052 85.2809 520.814 85.6374 520.529 86.0176C520.244 86.3503 519.958 86.7542 519.673 87.2295C519.388 87.7048 519.198 88.3464 519.103 89.1543C519.056 89.3444 519.032 89.5107 519.032 89.6533C519.032 89.7484 519.008 89.8197 518.96 89.8672C518.96 89.9147 518.96 89.9622 518.96 90.0098V90.1523C518.723 91.1029 518.461 91.9346 518.176 92.6475C517.891 93.3128 517.558 94.1208 517.178 95.0713C517.226 95.0713 517.368 94.9525 517.606 94.7148C517.891 94.4772 518.2 94.2396 518.533 94.002C518.913 93.7643 519.293 93.5505 519.673 93.3604C520.101 93.1702 520.505 93.1465 520.885 93.2891C521.17 93.3841 521.503 93.4316 521.883 93.4316C522.264 93.3841 522.62 93.3128 522.953 93.2178C523.333 93.1227 523.642 93.0514 523.879 93.0039C524.117 92.9089 524.26 92.8613 524.307 92.8613C524.735 92.8613 525.139 92.8613 525.519 92.8613C525.899 92.8613 526.279 92.8851 526.66 92.9326C526.707 92.9801 526.85 93.0039 527.087 93.0039C527.373 93.0039 527.681 93.0277 528.014 93.0752C528.394 93.1227 528.751 93.1702 529.083 93.2178C529.464 93.2653 529.749 93.3366 529.939 93.4316ZM508.41 103.127C508.267 103.27 508.006 103.531 507.625 103.911C507.245 104.339 506.818 104.743 506.342 105.123C505.915 105.551 505.487 105.883 505.059 106.121C504.631 106.406 504.322 106.501 504.132 106.406L503.562 106.691C503.087 106.929 502.778 107.262 502.635 107.689C502.493 108.117 502.35 108.569 502.208 109.044C502.112 109.519 501.97 109.971 501.78 110.398C501.637 110.826 501.305 111.159 500.782 111.396C500.164 111.111 499.712 110.897 499.427 110.755C499.19 110.612 498.976 110.565 498.786 110.612C498.596 110.66 498.382 110.826 498.144 111.111C497.906 111.444 497.502 111.919 496.932 112.537C495.601 114.058 494.247 115.555 492.869 117.028C491.538 118.549 490.183 120.07 488.805 121.591C488.472 122.541 488.069 123.516 487.593 124.514C487.07 125.512 486.548 126.486 486.025 127.437C485.455 128.435 484.956 129.575 484.528 130.858C484.1 132.142 483.744 133.449 483.458 134.779C483.126 136.158 482.864 137.536 482.674 138.914C482.437 140.292 482.247 141.576 482.104 142.764C482.152 142.859 482.318 142.882 482.603 142.835C482.888 142.835 483.197 142.787 483.53 142.692C483.815 142.645 484.1 142.574 484.385 142.479C484.67 142.431 484.861 142.383 484.956 142.336C485.003 142.336 485.122 142.241 485.312 142.051C485.502 141.861 485.716 141.647 485.954 141.409C486.144 141.172 486.334 140.934 486.524 140.696C486.667 140.506 486.738 140.387 486.738 140.34C486.928 140.245 487.261 140.102 487.736 139.912C488.211 139.722 488.544 139.627 488.734 139.627C488.829 139.627 488.9 139.437 488.948 139.057C488.948 138.676 488.948 138.439 488.948 138.344V137.132C488.853 137.037 488.829 136.775 488.876 136.348C488.876 135.92 488.876 135.659 488.876 135.563C489.399 135.326 489.898 135.088 490.374 134.851C490.896 134.613 491.419 134.352 491.942 134.066C492.084 133.639 492.251 133.187 492.441 132.712C492.631 132.284 492.845 131.856 493.083 131.429C494.033 129.623 494.936 127.817 495.792 126.011C496.647 124.252 497.621 122.47 498.714 120.664C499.522 119.333 500.283 117.979 500.996 116.601C501.756 115.27 502.54 113.915 503.348 112.537C503.396 112.442 503.491 112.252 503.633 111.967C503.823 111.682 504.014 111.396 504.204 111.111C504.441 110.826 504.655 110.565 504.845 110.327C505.083 110.137 505.273 110.042 505.416 110.042C505.653 110.042 505.796 109.852 505.843 109.472C505.891 109.139 505.915 108.901 505.915 108.759C505.915 108.569 506.033 108.165 506.271 107.547C506.556 106.977 506.841 106.359 507.126 105.693C507.459 105.076 507.744 104.505 507.982 103.982C508.267 103.46 508.41 103.174 508.41 103.127Z" fill="#EEFF41"/>
<path d="M170.362 134.312V155.336C170.362 155.997 170.533 156.328 170.874 156.328L172.794 156.424L172.762 156.904C171.738 157.075 170.672 157.16 169.562 157.16C169.328 157.139 169.072 157.021 168.794 156.808C168.538 156.595 168.389 156.317 168.346 155.976C167.13 156.744 165.722 157.128 164.122 157.128C162.565 157.128 161.125 156.691 159.802 155.816C159.056 155.325 158.448 154.557 157.978 153.512C157.53 152.445 157.306 151.155 157.306 149.64C157.306 146.845 158.021 144.712 159.45 143.24C160.965 141.661 162.693 140.872 164.634 140.872C165.829 140.872 167.045 141.181 168.282 141.8V134.152C168.282 133.917 168.218 133.8 168.09 133.8L166.138 133.736L166.17 133.288C167.514 133.096 168.432 133 168.922 133C169.434 133 169.797 133.139 170.01 133.416C170.245 133.693 170.362 133.992 170.362 134.312ZM164.538 156.552C165.84 156.552 167.088 156.264 168.282 155.688V142.312C167.344 141.736 166.416 141.448 165.498 141.448C163.664 141.448 162.181 142.152 161.05 143.56C159.941 144.968 159.386 146.984 159.386 149.608C159.386 154.237 161.104 156.552 164.538 156.552ZM178.878 149.64C178.878 154.248 180.67 156.552 184.254 156.552C185.192 156.552 186.195 156.456 187.262 156.264C188.328 156.051 189.011 155.859 189.31 155.688L189.534 156.008C189.043 156.328 188.232 156.595 187.102 156.808C185.992 157.021 184.968 157.128 184.03 157.128C183.112 157.128 182.28 157.032 181.534 156.84C180.808 156.648 180.062 156.307 179.294 155.816C178.526 155.325 177.918 154.557 177.47 153.512C177.022 152.467 176.798 151.187 176.798 149.672C176.798 146.856 177.523 144.701 178.974 143.208C180.488 141.651 182.248 140.872 184.254 140.872C186.259 140.872 187.784 141.427 188.83 142.536C189.896 143.645 190.43 145.203 190.43 147.208C190.43 147.635 190.398 148.093 190.334 148.584H178.91C178.888 148.819 178.878 149.171 178.878 149.64ZM188.542 146.984C188.542 145.384 188.19 144.083 187.486 143.08C186.782 142.056 185.822 141.544 184.606 141.544C183.027 141.544 181.694 142.237 180.606 143.624C179.731 144.712 179.187 146.163 178.974 147.976H188.51C188.531 147.741 188.542 147.411 188.542 146.984ZM198.329 156.616C198.457 156.616 198.585 156.605 198.713 156.584C199.822 156.563 200.75 156.221 201.497 155.56C202.244 154.877 202.617 153.885 202.617 152.584C202.617 151.304 201.614 150.376 199.609 149.8C198.777 149.565 197.945 149.309 197.113 149.032C196.281 148.755 195.566 148.317 194.969 147.72C194.393 147.123 194.105 146.344 194.105 145.384C194.105 144.019 194.628 142.931 195.673 142.12C196.718 141.288 198.041 140.872 199.641 140.872C200.836 140.872 202.041 141.085 203.257 141.512L203.833 141.736V145.416L203.225 145.64L203.097 142.92C201.86 141.939 200.825 141.448 199.993 141.448C198.82 141.448 197.892 141.8 197.209 142.504C196.526 143.187 196.185 144.104 196.185 145.256C196.185 145.917 196.473 146.451 197.049 146.856C197.646 147.261 198.361 147.581 199.193 147.816C200.025 148.051 200.857 148.317 201.689 148.616C202.521 148.893 203.225 149.363 203.801 150.024C204.398 150.664 204.697 151.507 204.697 152.552C204.697 153.96 204.164 155.08 203.097 155.912C202.052 156.723 200.558 157.128 198.617 157.128C196.676 157.128 195.065 156.669 193.785 155.752V152.072L194.361 151.848L194.521 154.568C194.82 155.123 195.353 155.603 196.121 156.008C196.91 156.413 197.646 156.616 198.329 156.616ZM212.233 142.312V156.36L214.633 156.52C214.633 156.541 214.623 156.701 214.601 157L208.201 157.032C208.201 156.84 208.212 156.691 208.233 156.584L209.897 156.36C210.025 156.36 210.111 156.264 210.153 156.072V142.024C210.111 141.875 210.047 141.8 209.961 141.8L208.041 141.736L208.073 141.288C209.225 141.096 210.1 141 210.697 141C211.295 141 211.7 141.139 211.913 141.416C212.127 141.693 212.233 141.992 212.233 142.312ZM211.145 136.712C210.719 136.712 210.388 136.584 210.153 136.328C209.919 136.051 209.801 135.699 209.801 135.272C209.801 134.824 209.919 134.472 210.153 134.216C210.409 133.939 210.751 133.8 211.177 133.8C211.604 133.8 211.945 133.939 212.201 134.216C212.479 134.472 212.617 134.835 212.617 135.304C212.617 135.752 212.479 136.104 212.201 136.36C211.924 136.595 211.572 136.712 211.145 136.712ZM217.237 160.296C217.237 158.291 218.453 156.573 220.885 155.144C219.84 154.568 219.317 153.843 219.317 152.968C219.317 152.072 219.744 151.379 220.597 150.888C218.933 150.141 218.101 148.563 218.101 146.152C218.101 144.509 218.72 143.219 219.957 142.28C221.194 141.341 222.773 140.872 224.693 140.872C225.589 140.872 226.442 140.979 227.253 141.192L232.597 140.872L232.533 142.088L228.725 141.864C230.112 142.76 230.805 144.115 230.805 145.928C230.805 147.741 230.218 149.128 229.045 150.088C227.872 151.048 226.357 151.528 224.501 151.528C223.264 151.528 222.25 151.421 221.461 151.208C221.098 151.613 220.917 152.083 220.917 152.616C220.917 153.576 221.301 154.269 222.069 154.696C222.901 155.187 224.373 155.613 226.485 155.976C226.976 156.061 227.328 156.136 227.541 156.2C227.776 156.243 228.106 156.307 228.533 156.392C228.96 156.477 229.28 156.563 229.493 156.648C229.706 156.712 229.973 156.819 230.293 156.968C230.634 157.096 230.89 157.224 231.061 157.352C231.232 157.48 231.424 157.64 231.637 157.832C231.85 158.024 232.01 158.237 232.117 158.472C232.352 159.027 232.469 159.667 232.469 160.392C232.469 161.139 232.245 161.843 231.797 162.504C231.349 163.165 230.73 163.667 229.941 164.008C228.405 164.669 226.645 165 224.661 165C222.037 165 220.138 164.531 218.965 163.592C217.813 162.675 217.237 161.576 217.237 160.296ZM221.397 155.4C220.01 156.915 219.317 158.397 219.317 159.848C219.317 161.299 219.733 162.419 220.565 163.208C221.418 164.019 222.709 164.424 224.437 164.424C226.165 164.424 227.584 164.093 228.693 163.432C229.824 162.771 230.389 161.715 230.389 160.264C230.389 159.112 230.026 158.269 229.301 157.736C228.597 157.203 227.594 156.808 226.293 156.552C223.669 156.061 222.037 155.677 221.397 155.4ZM224.597 141.288C223.274 141.288 222.208 141.704 221.397 142.536C220.586 143.347 220.181 144.573 220.181 146.216C220.181 147.859 220.49 149.085 221.109 149.896C221.728 150.707 222.73 151.112 224.117 151.112C225.525 151.112 226.624 150.653 227.413 149.736C228.224 148.797 228.629 147.539 228.629 145.96C228.629 142.845 227.285 141.288 224.597 141.288ZM235.301 157.032L235.333 156.584L236.997 156.36C237.189 156.339 237.285 156.189 237.285 155.912V142.056C237.243 141.885 237.179 141.8 237.093 141.8L235.141 141.736L235.173 141.288C236.517 141.096 237.424 141 237.893 141C238.747 141 239.227 141.373 239.333 142.12H239.365V142.792C241.115 141.597 242.789 140.968 244.389 140.904C245.947 140.904 247.131 141.213 247.941 141.832C248.304 142.109 248.624 142.547 248.901 143.144C249.2 143.72 249.349 144.413 249.349 145.224V156.36L251.749 156.52C251.749 156.541 251.739 156.701 251.717 157L245.317 157.032C245.317 156.84 245.328 156.691 245.349 156.584L247.013 156.36C247.184 156.339 247.269 156.189 247.269 155.912V146.024C247.269 145.171 247.152 144.445 246.917 143.848C246.704 143.251 246.459 142.813 246.181 142.536C245.904 142.259 245.563 142.045 245.157 141.896C244.688 141.725 244.197 141.64 243.685 141.64C242.405 141.661 240.965 142.163 239.365 143.144V156.36L241.765 156.52C241.765 156.541 241.755 156.701 241.733 157L235.301 157.032ZM260.232 156.616C260.36 156.616 260.488 156.605 260.616 156.584C261.725 156.563 262.653 156.221 263.4 155.56C264.146 154.877 264.52 153.885 264.52 152.584C264.52 151.304 263.517 150.376 261.512 149.8C260.68 149.565 259.848 149.309 259.016 149.032C258.184 148.755 257.469 148.317 256.872 147.72C256.296 147.123 256.008 146.344 256.008 145.384C256.008 144.019 256.53 142.931 257.576 142.12C258.621 141.288 259.944 140.872 261.544 140.872C262.738 140.872 263.944 141.085 265.16 141.512L265.736 141.736V145.416L265.128 145.64L265 142.92C263.762 141.939 262.728 141.448 261.896 141.448C260.722 141.448 259.794 141.8 259.112 142.504C258.429 143.187 258.088 144.104 258.088 145.256C258.088 145.917 258.376 146.451 258.952 146.856C259.549 147.261 260.264 147.581 261.096 147.816C261.928 148.051 262.76 148.317 263.592 148.616C264.424 148.893 265.128 149.363 265.704 150.024C266.301 150.664 266.6 151.507 266.6 152.552C266.6 153.96 266.066 155.08 265 155.912C263.954 156.723 262.461 157.128 260.52 157.128C258.578 157.128 256.968 156.669 255.688 155.752V152.072L256.264 151.848L256.424 154.568C256.722 155.123 257.256 155.603 258.024 156.008C258.813 156.413 259.549 156.616 260.232 156.616ZM287.935 156.392L289.183 156.328L289.279 156.648C289.257 156.648 289.108 156.68 288.831 156.744C288.191 156.893 287.476 156.968 286.687 156.968C285.961 156.925 285.3 156.808 284.703 156.616C284.105 156.403 283.551 155.976 283.039 155.336C282.527 154.675 282.271 153.832 282.271 152.808V141.576H280.639L280.895 141.32L282.303 141.032L282.559 137.96L284.351 137.8V141H288.223V141.576H284.351V152.264C284.351 153.885 284.692 154.984 285.375 155.56C286.057 156.115 286.911 156.392 287.935 156.392ZM296.025 134.312V142.984C298.819 141.064 301.347 140.467 303.609 141.192C304.121 141.341 304.558 141.565 304.921 141.864C305.305 142.141 305.635 142.568 305.913 143.144C306.19 143.72 306.329 144.413 306.329 145.224V156.36L308.729 156.52C308.729 156.541 308.718 156.701 308.697 157L302.297 157.032C302.297 156.84 302.307 156.691 302.329 156.584L303.993 156.36C304.121 156.36 304.206 156.264 304.249 156.072V146.056C304.249 145.224 304.131 144.509 303.897 143.912C303.683 143.293 303.427 142.845 303.129 142.568C302.83 142.291 302.478 142.077 302.073 141.928C301.518 141.715 301.027 141.629 300.601 141.672C299.214 141.715 297.689 142.28 296.025 143.368V156.36L298.425 156.52C298.425 156.541 298.414 156.701 298.393 157L291.993 157.032C291.993 156.84 292.003 156.691 292.025 156.584L293.689 156.36C293.859 156.339 293.945 156.189 293.945 155.912V134.152C293.945 133.917 293.881 133.8 293.753 133.8L291.833 133.736L291.865 133.288C293.017 133.096 293.891 133 294.489 133C295.086 133 295.491 133.139 295.705 133.416C295.918 133.693 296.025 133.992 296.025 134.312ZM321.205 155.784H321.109C319.189 156.68 317.322 157.128 315.509 157.128C312.672 157.128 311.168 156.008 310.997 153.768C310.976 153.619 310.965 153.48 310.965 153.352C310.965 151.709 312.042 150.611 314.197 150.056C315.477 149.779 317.781 149.448 321.109 149.064V146.248C321.109 145.352 321.002 144.584 320.789 143.944C320.576 143.304 320.341 142.835 320.085 142.536C319.829 142.216 319.498 141.971 319.093 141.8C318.581 141.587 318.005 141.48 317.365 141.48C316.746 141.48 316.032 141.64 315.221 141.96C314.048 142.451 313.002 143.069 312.085 143.816L311.957 146.312L311.349 146.472V142.6L311.669 142.472C313.333 141.747 314.602 141.309 315.477 141.16C316.352 141.011 316.992 140.936 317.397 140.936C317.802 140.915 318.186 140.915 318.549 140.936C318.933 140.957 319.424 141.053 320.021 141.224C320.618 141.395 321.13 141.64 321.557 141.96C322.005 142.259 322.389 142.717 322.709 143.336C323.029 143.955 323.189 144.691 323.189 145.544V155.336C323.189 155.997 323.36 156.328 323.701 156.328L325.653 156.424L325.621 156.904C324.426 157.075 323.36 157.16 322.421 157.16C322.165 157.139 321.898 157.011 321.621 156.776C321.344 156.52 321.205 156.189 321.205 155.784ZM316.085 156.616C317.664 156.616 319.338 156.061 321.109 154.952V149.672C317.909 149.779 315.893 149.971 315.061 150.248C314.25 150.504 313.685 150.92 313.365 151.496C313.066 152.051 312.917 152.605 312.917 153.16C312.917 153.267 312.917 153.373 312.917 153.48C312.981 154.589 313.312 155.389 313.909 155.88C314.506 156.371 315.232 156.616 316.085 156.616ZM334.565 156.392L335.813 156.328L335.909 156.648C335.887 156.648 335.738 156.68 335.461 156.744C334.821 156.893 334.106 156.968 333.317 156.968C332.591 156.925 331.93 156.808 331.333 156.616C330.735 156.403 330.181 155.976 329.669 155.336C329.157 154.675 328.901 153.832 328.901 152.808V141.576H327.269L327.525 141.32L328.933 141.032L329.189 137.96L330.981 137.8V141H334.853V141.576H330.981V152.264C330.981 153.885 331.322 154.984 332.005 155.56C332.687 156.115 333.541 156.392 334.565 156.392ZM354.451 142.312V144.872C356.136 142.397 357.789 141.139 359.411 141.096C359.539 141.096 359.667 141.096 359.795 141.096L361.587 141.32L360.755 143.24C360.349 142.835 359.827 142.632 359.187 142.632C357.629 142.653 356.051 143.688 354.451 145.736V156.36L357.171 156.52C357.171 156.541 357.16 156.701 357.139 157L350.419 157.032C350.419 156.84 350.429 156.691 350.451 156.584L352.115 156.36C352.285 156.339 352.371 156.189 352.371 155.912V142.024C352.328 141.875 352.264 141.8 352.179 141.8L350.259 141.736L350.291 141.288C351.443 141.096 352.317 141 352.915 141C353.512 141 353.917 141.139 354.131 141.416C354.344 141.693 354.451 141.992 354.451 142.312ZM365.639 149.64C365.639 154.248 367.431 156.552 371.015 156.552C371.953 156.552 372.956 156.456 374.023 156.264C375.089 156.051 375.772 155.859 376.071 155.688L376.295 156.008C375.804 156.328 374.993 156.595 373.863 156.808C372.753 157.021 371.729 157.128 370.791 157.128C369.873 157.128 369.041 157.032 368.295 156.84C367.569 156.648 366.823 156.307 366.055 155.816C365.287 155.325 364.679 154.557 364.231 153.512C363.783 152.467 363.559 151.187 363.559 149.672C363.559 146.856 364.284 144.701 365.735 143.208C367.249 141.651 369.009 140.872 371.015 140.872C373.02 140.872 374.545 141.427 375.591 142.536C376.657 143.645 377.191 145.203 377.191 147.208C377.191 147.635 377.159 148.093 377.095 148.584H365.671C365.649 148.819 365.639 149.171 365.639 149.64ZM375.303 146.984C375.303 145.384 374.951 144.083 374.247 143.08C373.543 142.056 372.583 141.544 371.367 141.544C369.788 141.544 368.455 142.237 367.367 143.624C366.492 144.712 365.948 146.163 365.735 147.976H375.271C375.292 147.741 375.303 147.411 375.303 146.984ZM379.921 157.032L379.953 156.584L381.617 156.36C381.809 156.339 381.905 156.189 381.905 155.912V141.576H380.273L380.529 141.32L381.905 141.032V137.128C381.905 135.656 382.385 134.6 383.345 133.96C384.305 133.299 385.425 132.968 386.705 132.968C387.559 132.968 388.284 133.085 388.881 133.32L388.785 133.544C388.273 133.48 387.825 133.448 387.441 133.448C387.079 133.448 386.716 133.501 386.353 133.608C386.012 133.715 385.649 133.907 385.265 134.184C384.412 134.803 383.985 136.029 383.985 137.864V141H387.857V141.576H383.985V156.36L386.705 156.52C386.705 156.541 386.695 156.701 386.673 157L379.921 157.032ZM391.306 157.032L391.338 156.584L393.002 156.36C393.152 156.339 393.248 156.232 393.29 156.04V134.152C393.29 133.917 393.226 133.8 393.098 133.8L391.146 133.736L391.178 133.288C392.522 133.096 393.44 133 393.93 133C394.442 133 394.805 133.139 395.018 133.416C395.253 133.693 395.37 133.992 395.37 134.312V156.36L397.77 156.52C397.77 156.541 397.76 156.701 397.738 157L391.306 157.032ZM403.519 149.64C403.519 154.248 405.311 156.552 408.895 156.552C409.833 156.552 410.836 156.456 411.903 156.264C412.969 156.051 413.652 155.859 413.951 155.688L414.175 156.008C413.684 156.328 412.873 156.595 411.743 156.808C410.633 157.021 409.609 157.128 408.671 157.128C407.753 157.128 406.921 157.032 406.175 156.84C405.449 156.648 404.703 156.307 403.935 155.816C403.167 155.325 402.559 154.557 402.111 153.512C401.663 152.467 401.439 151.187 401.439 149.672C401.439 146.856 402.164 144.701 403.615 143.208C405.129 141.651 406.889 140.872 408.895 140.872C410.9 140.872 412.425 141.427 413.471 142.536C414.537 143.645 415.071 145.203 415.071 147.208C415.071 147.635 415.039 148.093 414.975 148.584H403.551C403.529 148.819 403.519 149.171 403.519 149.64ZM413.183 146.984C413.183 145.384 412.831 144.083 412.127 143.08C411.423 142.056 410.463 141.544 409.247 141.544C407.668 141.544 406.335 142.237 405.247 143.624C404.372 144.712 403.828 146.163 403.615 147.976H413.151C413.172 147.741 413.183 147.411 413.183 146.984ZM426.746 141.448C424.933 141.448 423.461 142.163 422.33 143.592C421.221 145 420.666 147.005 420.666 149.608C420.666 154.237 422.426 156.552 425.946 156.552C427.333 156.552 428.517 156.424 429.498 156.168C430.48 155.891 431.013 155.72 431.098 155.656L431.322 156.008C430.832 156.328 430.021 156.595 428.89 156.808C427.76 157.021 426.736 157.128 425.818 157.128C424.901 157.128 424.069 157.032 423.322 156.84C422.576 156.648 421.818 156.307 421.05 155.816C420.304 155.325 419.706 154.557 419.258 153.512C418.81 152.445 418.586 151.155 418.586 149.64C418.586 146.845 419.301 144.733 420.73 143.304C422.33 141.661 424.346 140.84 426.778 140.84C427.546 140.84 428.357 140.947 429.21 141.16C430.085 141.352 430.757 141.661 431.226 142.088V146.28L430.618 146.504L430.458 143.144C429.989 142.653 429.413 142.248 428.73 141.928C428.069 141.608 427.408 141.448 426.746 141.448ZM441.807 156.392L443.055 156.328L443.151 156.648C443.13 156.648 442.981 156.68 442.703 156.744C442.063 156.893 441.349 156.968 440.559 156.968C439.834 156.925 439.173 156.808 438.575 156.616C437.978 156.403 437.423 155.976 436.911 155.336C436.399 154.675 436.143 153.832 436.143 152.808V141.576H434.511L434.767 141.32L436.175 141.032L436.431 137.96L438.223 137.8V141H442.095V141.576H438.223V152.264C438.223 153.885 438.565 154.984 439.247 155.56C439.93 156.115 440.783 156.392 441.807 156.392ZM461.341 165L461.277 164.552L464.253 164.168C464.403 164.147 464.499 163.997 464.541 163.72L465.597 157H464.541L459.197 142.12L459.165 142.088C459.059 141.832 458.888 141.683 458.653 141.64L457.213 141.512C457.192 141.384 457.181 141.224 457.181 141.032L463.901 141C463.901 141.021 463.912 141.181 463.933 141.48L461.437 141.672L466.173 156.168L472.125 142.088C472.189 141.96 472.147 141.853 471.997 141.768C471.869 141.683 471.731 141.629 471.581 141.608L470.173 141.512C470.152 141.384 470.141 141.224 470.141 141.032L475.997 141C475.997 141.021 476.008 141.181 476.029 141.48L473.181 141.768L466.461 157L465.245 164.328L468.029 164.488C468.072 164.787 468.093 164.947 468.093 164.968L461.341 165ZM484.289 157.128C482.07 157.128 480.267 156.488 478.881 155.208C477.515 153.928 476.833 151.976 476.833 149.352C476.833 146.707 477.558 144.637 479.009 143.144C480.481 141.629 482.326 140.872 484.545 140.872C486.763 140.872 488.566 141.512 489.953 142.792C491.339 144.072 492.033 146.035 492.033 148.68C492.033 151.304 491.297 153.373 489.825 154.888C488.374 156.381 486.529 157.128 484.289 157.128ZM484.513 141.448C482.913 141.448 481.579 142.141 480.513 143.528C479.446 144.915 478.913 146.803 478.913 149.192C478.913 151.56 479.414 153.384 480.417 154.664C481.441 155.923 482.753 156.552 484.353 156.552C485.953 156.552 487.286 155.859 488.353 154.472C489.419 153.085 489.953 151.208 489.953 148.84C489.953 146.472 489.441 144.648 488.417 143.368C487.414 142.088 486.113 141.448 484.513 141.448ZM495.304 141.512L495.272 141.032L499.592 141V152.136C499.592 152.968 499.71 153.693 499.944 154.312C500.179 154.909 500.435 155.347 500.712 155.624C501.011 155.901 501.352 156.115 501.736 156.264C502.334 156.477 502.835 156.563 503.24 156.52C504.542 156.499 506.024 155.827 507.688 154.504V142.12C507.603 141.864 507.422 141.715 507.144 141.672L505.48 141.512C505.459 141.384 505.448 141.224 505.448 141.032L509.768 141V155.528C509.811 156.061 509.982 156.328 510.28 156.328L512.2 156.424L512.168 156.904C511.144 157.075 510.078 157.16 508.968 157.16C508.712 157.139 508.435 157 508.136 156.744C507.838 156.467 507.688 156.125 507.688 155.72V155.144C505.747 156.445 503.912 157.096 502.184 157.096C501.459 157.096 500.606 156.915 499.624 156.552C498.984 156.317 498.472 155.88 498.088 155.24C497.704 154.579 497.512 153.757 497.512 152.776V142.152C497.512 142.045 497.448 141.949 497.32 141.864C497.214 141.757 497.096 141.693 496.968 141.672L495.304 141.512Z" fill="#0455BF"/>
</svg>
